<?xml version="1.0" encoding="utf-8"?>
<!-- Generator: Adobe Illustrator 18.0.0, SVG Export Plug-In . SVG Version: 6.00 Build 0)  -->
<!DOCTYPE svg PUBLIC "-//W3C//DTD SVG 1.1//EN" "http://www.w3.org/Graphics/SVG/1.1/DTD/svg11.dtd">
<svg version="1.1" xmlns="http://www.w3.org/2000/svg" xmlns:xlink="http://www.w3.org/1999/xlink" x="0px" y="0px" width="2272px"
	 height="1872px" viewBox="0 0 2272 1872" enable-background="new 0 0 2272 1872" xml:space="preserve">
<g id="Layer_2">
</g>
<g id="Layer_1">
	<g>
		<rect x="0" fill="#D1D2D1" width="2272" height="1872"/>
		<g>
			<g>
				<rect x="314.2" y="142.4" fill="#4B2102" width="1578.2" height="1578.2"/>
				<g>
					<rect x="1469.3" y="382.5" width="183" height="183"/>
					<rect x="920.3" y="382.5" fill="#FFFFFF" width="183" height="183"/>
					<rect x="1103.3" y="382.5" width="183" height="183"/>
					<rect x="1286.3" y="382.5" fill="#FFFFFF" width="183" height="183"/>
					<rect x="737.3" y="382.5" width="183" height="183"/>
					<rect x="554.2" y="382.5" fill="#FFFFFF" width="183" height="183"/>
					<rect x="1652.3" y="199.4" width="183" height="183"/>
					<rect x="1652.3" y="382.5" fill="#FFFFFF" width="183" height="183"/>
					<rect x="554.2" y="199.4" width="183" height="183"/>
					<rect x="371.2" y="382.5" width="183" height="183"/>
					<rect x="371.2" y="199.4" fill="#FFFFFF" width="183" height="183"/>
					<rect x="1103.3" y="199.4" fill="#FFFFFF" width="183" height="183"/>
					<rect x="737.3" y="199.4" fill="#FFFFFF" width="183" height="183"/>
					<rect x="1469.3" y="199.4" fill="#FFFFFF" width="183" height="183"/>
					<rect x="1286.3" y="199.4" width="183" height="183"/>
					<rect x="920.3" y="199.4" width="183" height="183"/>
					<rect x="1469.3" y="748.5" width="183" height="183"/>
					<rect x="920.3" y="748.5" fill="#FFFFFF" width="183" height="183"/>
					<rect x="1103.3" y="748.5" width="183" height="183"/>
					<rect x="1286.3" y="748.5" fill="#FFFFFF" width="183" height="183"/>
					<rect x="737.3" y="748.5" width="183" height="183"/>
					<rect x="554.2" y="748.5" fill="#FFFFFF" width="183" height="183"/>
					<rect x="1652.3" y="565.5" width="183" height="183"/>
					<rect x="1652.3" y="748.5" fill="#FFFFFF" width="183" height="183"/>
					<rect x="554.2" y="565.5" width="183" height="183"/>
					<rect x="371.2" y="748.5" width="183" height="183"/>
					<rect x="371.2" y="565.5" fill="#FFFFFF" width="183" height="183"/>
					<rect x="1103.3" y="565.5" fill="#FFFFFF" width="183" height="183"/>
					<rect x="737.3" y="565.5" fill="#FFFFFF" width="183" height="183"/>
					<rect x="1469.3" y="565.5" fill="#FFFFFF" width="183" height="183"/>
					<rect x="1286.3" y="565.5" width="183" height="183"/>
					<rect x="920.3" y="565.5" width="183" height="183"/>
					<rect x="1469.3" y="1114.5" width="183" height="183"/>
					<rect x="920.3" y="1114.5" fill="#FFFFFF" width="183" height="183"/>
					<rect x="1103.3" y="1114.5" width="183" height="183"/>
					<rect x="1286.3" y="1114.5" fill="#FFFFFF" width="183" height="183"/>
					<rect x="737.3" y="1114.5" width="183" height="183"/>
					<rect x="554.2" y="1114.5" fill="#FFFFFF" width="183" height="183"/>
					<rect x="1652.3" y="931.5" width="183" height="183"/>
					<rect x="1652.3" y="1114.5" fill="#FFFFFF" width="183" height="183"/>
					<rect x="554.2" y="931.5" width="183" height="183"/>
					<rect x="371.2" y="1114.5" width="183" height="183"/>
					<rect x="371.2" y="931.5" fill="#FFFFFF" width="183" height="183"/>
					<rect x="1103.3" y="931.5" fill="#FFFFFF" width="183" height="183"/>
					<rect x="737.3" y="931.5" fill="#FFFFFF" width="183" height="183"/>
					<rect x="1469.3" y="931.5" fill="#FFFFFF" width="183" height="183"/>
					<rect x="1286.3" y="931.5" width="183" height="183"/>
					<rect x="920.3" y="931.5" width="183" height="183"/>
					<rect x="1469.3" y="1480.6" width="183" height="183"/>
					<rect x="920.3" y="1480.6" fill="#FFFFFF" width="183" height="183"/>
					<rect x="1103.3" y="1480.6" width="183" height="183"/>
					<rect x="1286.3" y="1480.6" fill="#FFFFFF" width="183" height="183"/>
					<rect x="737.3" y="1480.6" width="183" height="183"/>
					<rect x="554.2" y="1480.6" fill="#FFFFFF" width="183" height="183"/>
					<rect x="1652.3" y="1297.5" width="183" height="183"/>
					<rect x="1652.3" y="1480.6" fill="#FFFFFF" width="183" height="183"/>
					<rect x="554.2" y="1297.5" width="183" height="183"/>
					<rect x="371.2" y="1480.6" width="183" height="183"/>
					<rect x="371.2" y="1297.5" fill="#FFFFFF" width="183" height="183"/>
					<rect x="1103.3" y="1297.5" fill="#FFFFFF" width="183" height="183"/>
					<rect x="737.3" y="1297.5" fill="#FFFFFF" width="183" height="183"/>
					<rect x="1469.3" y="1297.5" fill="#FFFFFF" width="183" height="183"/>
					<rect x="1286.3" y="1297.5" width="183" height="183"/>
					<rect x="920.3" y="1297.5" width="183" height="183"/>
				</g>
				<polygon fill="#3C1500" points="1892.4,142.4 1892.4,1720.6 314.2,1720.6 399.3,1794.4 1957.8,1794.4 1957.8,1720.6 
					1957.8,207.8 				"/>
			</g>
			<g>
				<g>
					<path opacity="0.33" fill="#30302F" d="M499.9,1411.8c-0.7-1.1-1.8-2-3.8-2.3c0.1,0,0.2,0,0.2-0.1s0.2,0,0.2-0.1
						c0.2-0.1,0.3-0.2,0.5-0.3s0.3-0.3,0.5-0.5s0.3-0.4,0.5-0.7c0.6-1.1,1-2.9,1-5.8c0-1.1-0.3-2-0.7-2.9s-1.1-1.5-1.9-2.2
						c-0.3-0.3-0.7-0.5-1.1-0.8c-0.6-0.4-1.3-0.9-2-1.3c-0.2-0.1-0.5-0.3-0.7-0.4c-2.6-1.5-5.4-3-7.4-5.6c-1.6-2-2.7-4.6-2.7-8.3
						c0.4-0.2,2.5-1.7,3.9-2.8c0.2-0.2,0.4-0.3,0.6-0.4c0.6-0.4,0.9-1.1,0.9-1.8l0,0c0-1.1-0.8-2-1.8-2.2c-0.1,0-0.3,0-0.5,0
						c-1.5,0-3.6-0.3-5.4-1.4c-0.3-0.2-0.5-0.3-0.8-0.6c-0.4-0.3-0.7-0.7-1.1-1.1c-0.2-0.3-0.5-0.6-0.7-1c-1.1-1.7-1.8-4.1-1.8-7.5
						c0-5.4,0.9-10,1.9-13.7c0.3-0.9,0.5-1.8,0.8-2.6c0.2-0.6,0.4-1.1,0.6-1.6c0.6-1.6,1.3-2.9,1.7-3.8h2.5c1,0,1.9-0.4,2.5-0.9
						c0.2-0.1,0.3-0.3,0.5-0.5c0.4-0.5,0.7-1.2,0.8-1.9c0-0.3,0-0.5,0-0.8c-0.2-1.8-1.8-3.3-3.7-3.3h0h-1.8c-0.3,0-0.8-0.1-1.5-0.3
						c-0.3-0.1-0.7-0.2-1.1-0.4c-0.2-0.1-0.4-0.2-0.6-0.3c-0.4-0.2-0.9-0.4-1.4-0.7c-1.7-0.9-3.6-2-5.4-3.5c3.2-1.1,6-3,8.2-5.3
						c2.6-2.8,4.5-6.3,5.3-10.2c0.1-0.6,0.2-1.1,0.3-1.7c0.1-1.1,0.2-2.3,0.1-3.5c-0.1-2.7-0.7-5.3-1.8-7.6
						c-0.5-1.2-1.2-2.3-1.9-3.3c-0.7-1.1-1.5-2-2.4-2.9c0,0-0.1-0.1-0.1-0.1c-0.8-0.8-1.6-1.4-2.5-2.1c-1.5-1.1-3.1-1.9-4.8-2.6
						c-2-0.8-4.2-1.3-6.5-1.4c-0.1,0-0.1,0-0.2,0c-0.3,0-0.6,0-0.8,0l0,0c-11.6,0-21,9.4-21,21c0,9.2,5.9,16.9,14,19.8
						c-4.1,3.4-8.8,5.2-9.9,5.2h-1.3c-1.9,0-3.6,1.4-3.8,3.3c-0.2,2.2,1.5,4,3.7,4h2.2c1.6,3,5,10.8,5,21.6
						c0,10.1-6.2,11.5-9.7,11.6c-1.3,0-2.3,1-2.3,2.3l0,0c0,0.7,0.3,1.4,0.9,1.8c1.4,1.1,4,3,4.5,3.3c0,14.5-16.4,12.6-16.4,21.4
						c0,5.8,1.8,7.1,3,7.3c-4.9,0.7-4.8,5.8-4.8,5.8v6.5H465h35.9h0v-6.5C500.9,1415.2,500.9,1413.4,499.9,1411.8z"/>
					<g>
						<path fill="#A7A9AC" d="M491.6,1405.7c1.2-0.2,3-1.5,3-7.3c0-8.8-16.4-6.9-16.4-21.4c0.5-0.2,3.1-2.2,4.5-3.3
							c0.6-0.4,0.9-1.1,0.9-1.8l0,0c0-1.3-1-2.3-2.3-2.3c-3.5,0-9.7-1.4-9.7-11.6c0-10.8,3.4-18.5,5-21.6h2.5c1.9,0,3.6-1.4,3.8-3.3
							c0.2-2.2-1.5-4-3.7-4h-1.8c-1.2,0-5.8-1.8-9.9-5.2c8.4-3,14.4-11.2,14-20.7c-0.5-10.8-9.2-19.6-20-20.1
							c-12.1-0.6-22,9.1-22,21c0,9.2,5.9,16.9,14,19.8c-4.1,3.4-8.8,5.2-9.9,5.2h-1.3c-1.9,0-3.6,1.4-3.8,3.3c-0.2,2.2,1.5,4,3.7,4
							h2.2c1.6,3,5,10.8,5,21.6c0,10.1-6.2,11.5-9.7,11.6c-1.3,0-2.3,1-2.3,2.3l0,0c0,0.7,0.3,1.4,0.9,1.8c1.4,1.1,4,3,4.5,3.3
							c0,14.5-16.4,12.6-16.4,21.4c0,5.8,1.8,7.1,3,7.3c-4.9,0.7-4.8,5.8-4.8,5.8v6.5h71.9v-6.5
							C496.4,1411.5,496.5,1406.4,491.6,1405.7z"/>
						<path fill="#939598" d="M496.4,1411.5c0,0,0-5.1-4.8-5.8c1.2-0.2,3-1.5,3-7.3c0-8.8-16.4-6.9-16.4-21.4
							c0.5-0.2,3.1-2.2,4.5-3.3c0.6-0.4,0.9-1.1,0.9-1.8c0-1.3-1-2.3-2.3-2.3c-3.5,0-9.7-1.4-9.7-11.6c0-10.8,3.4-18.5,5-21.6h2.5
							c1.9,0,3.6-1.4,3.8-3.3c0.2-2.2-1.5-4-3.7-4h-1.8c-1.2,0-5.8-1.8-9.9-5.2c8.4-3,14.4-11.2,14-20.7c-0.5-10.8-9.2-19.6-20-20.1
							c-0.3,0-0.7,0-1,0V1418h35.9V1411.5z"/>
					</g>
				</g>
				<g>
					<path opacity="0.33" fill="#30302F" d="M682.9,1410.2c-0.7-1.1-1.8-2-3.8-2.3c0.1,0,0.2,0,0.2-0.1s0.2,0,0.2-0.1
						c0.2-0.1,0.3-0.2,0.5-0.3s0.3-0.3,0.5-0.5s0.3-0.4,0.5-0.7c0.6-1.1,1-2.9,1-5.8c0-1.1-0.3-2-0.7-2.9s-1.1-1.5-1.9-2.2
						c-0.3-0.3-0.7-0.5-1.1-0.8c-0.6-0.4-1.3-0.9-2-1.3c-0.2-0.1-0.5-0.3-0.7-0.4c-2.6-1.5-5.4-3-7.4-5.6c-1.6-2-2.7-4.6-2.7-8.3
						c0.4-0.2,2.5-1.7,3.9-2.8c0.2-0.2,0.4-0.3,0.6-0.4c0.6-0.4,0.9-1.1,0.9-1.8l0,0c0-1.1-0.8-2-1.8-2.2c-0.1,0-0.3,0-0.5,0
						c-1.5,0-3.6-0.3-5.4-1.4c-0.3-0.2-0.5-0.3-0.8-0.6c-0.4-0.3-0.7-0.7-1.1-1.1c-0.2-0.3-0.5-0.6-0.7-1c-1.1-1.7-1.8-4.1-1.8-7.5
						c0-5.4,0.9-10,1.9-13.7c0.3-0.9,0.5-1.8,0.8-2.6c0.2-0.6,0.4-1.1,0.6-1.6c0.6-1.6,1.3-2.9,1.7-3.8h2.5c1,0,1.9-0.4,2.5-0.9
						c0.2-0.1,0.3-0.3,0.5-0.5c0.4-0.5,0.7-1.2,0.8-1.9c0-0.3,0-0.5,0-0.8c-0.2-1.8-1.8-3.3-3.7-3.3h0h-1.8c-0.3,0-0.8-0.1-1.5-0.3
						c-0.3-0.1-0.7-0.2-1.1-0.4c-0.2-0.1-0.4-0.2-0.6-0.3c-0.4-0.2-0.9-0.4-1.4-0.7c-1.7-0.9-3.6-2-5.4-3.5c3.2-1.1,6-3,8.2-5.3
						c2.6-2.8,4.5-6.3,5.3-10.2c0.1-0.6,0.2-1.1,0.3-1.7c0.1-1.1,0.2-2.3,0.1-3.5c-0.1-2.7-0.7-5.3-1.8-7.6
						c-0.5-1.2-1.2-2.3-1.9-3.3c-0.7-1.1-1.5-2-2.4-2.9c0,0-0.1-0.1-0.1-0.1c-0.8-0.8-1.6-1.4-2.5-2.1c-1.5-1.1-3.1-1.9-4.8-2.6
						c-2-0.8-4.2-1.3-6.5-1.4c-0.1,0-0.1,0-0.2,0c-0.3,0-0.6,0-0.8,0l0,0c-11.6,0-21,9.4-21,21c0,9.2,5.9,16.9,14,19.8
						c-4.1,3.4-8.8,5.2-9.9,5.2h-1.3c-1.9,0-3.6,1.4-3.8,3.3c-0.2,2.2,1.5,4,3.7,4h2.2c1.6,3,5,10.8,5,21.6
						c0,10.1-6.2,11.5-9.7,11.6c-1.3,0-2.3,1-2.3,2.3l0,0c0,0.7,0.3,1.4,0.9,1.8c1.4,1.1,4,3,4.5,3.3c0,14.5-16.4,12.6-16.4,21.4
						c0,5.8,1.8,7.1,3,7.3c-4.9,0.7-4.8,5.8-4.8,5.8v6.5H648h35.9h0v-6.5C683.9,1413.7,683.9,1411.8,682.9,1410.2z"/>
					<g>
						<path fill="#A7A9AC" d="M674.6,1404.2c1.2-0.2,3-1.5,3-7.3c0-8.8-16.4-6.9-16.4-21.4c0.5-0.2,3.1-2.2,4.5-3.3
							c0.6-0.4,0.9-1.1,0.9-1.8l0,0c0-1.3-1-2.3-2.3-2.3c-3.5,0-9.7-1.4-9.7-11.6c0-10.8,3.4-18.5,5-21.6h2.5c1.9,0,3.6-1.4,3.8-3.3
							c0.2-2.2-1.5-4-3.7-4h-1.8c-1.2,0-5.8-1.8-9.9-5.2c8.4-3,14.4-11.2,14-20.7c-0.5-10.8-9.2-19.6-20-20.1
							c-12.1-0.6-22,9.1-22,21c0,9.2,5.9,16.9,14,19.8c-4.1,3.4-8.8,5.2-9.9,5.2h-1.3c-1.9,0-3.6,1.4-3.8,3.3c-0.2,2.2,1.5,4,3.7,4
							h2.2c1.6,3,5,10.8,5,21.6c0,10.1-6.2,11.5-9.7,11.6c-1.3,0-2.3,1-2.3,2.3l0,0c0,0.7,0.3,1.4,0.9,1.8c1.4,1.1,4,3,4.5,3.3
							c0,14.5-16.4,12.6-16.4,21.4c0,5.8,1.8,7.1,3,7.3c-4.9,0.7-4.8,5.8-4.8,5.8v6.5h71.9v-6.5
							C679.4,1409.9,679.5,1404.8,674.6,1404.2z"/>
						<path fill="#939598" d="M679.4,1409.9c0,0,0-5.1-4.8-5.8c1.2-0.2,3-1.5,3-7.3c0-8.8-16.4-6.9-16.4-21.4
							c0.5-0.2,3.1-2.2,4.5-3.3c0.6-0.4,0.9-1.1,0.9-1.8c0-1.3-1-2.3-2.3-2.3c-3.5,0-9.7-1.4-9.7-11.6c0-10.8,3.4-18.5,5-21.6h2.5
							c1.9,0,3.6-1.4,3.8-3.3c0.2-2.2-1.5-4-3.7-4h-1.8c-1.2,0-5.8-1.8-9.9-5.2c8.4-3,14.4-11.2,14-20.7c-0.5-10.8-9.2-19.6-20-20.1
							c-0.3,0-0.7,0-1,0v134.9h35.9V1409.9z"/>
					</g>
				</g>
				<g>
					<path opacity="0.33" fill="#30302F" d="M865.9,1410.2c-0.7-1.1-1.8-2-3.8-2.3c0.1,0,0.2,0,0.2-0.1s0.2,0,0.2-0.1
						c0.2-0.1,0.3-0.2,0.5-0.3s0.3-0.3,0.5-0.5s0.3-0.4,0.5-0.7c0.6-1.1,1-2.9,1-5.8c0-1.1-0.3-2-0.7-2.9s-1.1-1.5-1.9-2.2
						c-0.3-0.3-0.7-0.5-1.1-0.8c-0.6-0.4-1.3-0.9-2-1.3c-0.2-0.1-0.5-0.3-0.7-0.4c-2.6-1.5-5.4-3-7.4-5.6c-1.6-2-2.7-4.6-2.7-8.3
						c0.4-0.2,2.5-1.7,3.9-2.8c0.2-0.2,0.4-0.3,0.6-0.4c0.6-0.4,0.9-1.1,0.9-1.8l0,0c0-1.1-0.8-2-1.8-2.2c-0.1,0-0.3,0-0.5,0
						c-1.5,0-3.6-0.3-5.4-1.4c-0.3-0.2-0.5-0.3-0.8-0.6c-0.4-0.3-0.7-0.7-1.1-1.1c-0.2-0.3-0.5-0.6-0.7-1c-1.1-1.7-1.8-4.1-1.8-7.5
						c0-5.4,0.9-10,1.9-13.7c0.3-0.9,0.5-1.8,0.8-2.6c0.2-0.6,0.4-1.1,0.6-1.6c0.6-1.6,1.3-2.9,1.7-3.8h2.5c1,0,1.9-0.4,2.5-0.9
						c0.2-0.1,0.3-0.3,0.5-0.5c0.4-0.5,0.7-1.2,0.8-1.9c0-0.3,0-0.5,0-0.8c-0.2-1.8-1.8-3.3-3.7-3.3h0h-1.8c-0.3,0-0.8-0.1-1.5-0.3
						c-0.3-0.1-0.7-0.2-1.1-0.4c-0.2-0.1-0.4-0.2-0.6-0.3c-0.4-0.2-0.9-0.4-1.4-0.7c-1.7-0.9-3.6-2-5.4-3.5c3.2-1.1,6-3,8.2-5.3
						c2.6-2.8,4.5-6.3,5.3-10.2c0.1-0.6,0.2-1.1,0.3-1.7c0.1-1.1,0.2-2.3,0.1-3.5c-0.1-2.7-0.7-5.3-1.8-7.6
						c-0.5-1.2-1.2-2.3-1.9-3.3c-0.7-1.1-1.5-2-2.4-2.9c0,0-0.1-0.1-0.1-0.1c-0.8-0.8-1.6-1.4-2.5-2.1c-1.5-1.1-3.1-1.9-4.8-2.6
						c-2-0.8-4.2-1.3-6.5-1.4c-0.1,0-0.1,0-0.2,0c-0.3,0-0.6,0-0.8,0l0,0c-11.6,0-21,9.4-21,21c0,9.2,5.9,16.9,14,19.8
						c-4.1,3.4-8.8,5.2-9.9,5.2h-1.3c-1.9,0-3.6,1.4-3.8,3.3c-0.2,2.2,1.5,4,3.7,4h2.2c1.6,3,5,10.8,5,21.6
						c0,10.1-6.2,11.5-9.7,11.6c-1.3,0-2.3,1-2.3,2.3l0,0c0,0.7,0.3,1.4,0.9,1.8c1.4,1.1,4,3,4.5,3.3c0,14.5-16.4,12.6-16.4,21.4
						c0,5.8,1.8,7.1,3,7.3c-4.9,0.7-4.8,5.8-4.8,5.8v6.5H831H867h0v-6.5C867,1413.7,867,1411.8,865.9,1410.2z"/>
					<g>
						<path fill="#A7A9AC" d="M857.6,1404.2c1.2-0.2,3-1.5,3-7.3c0-8.8-16.4-6.9-16.4-21.4c0.5-0.2,3.1-2.2,4.5-3.3
							c0.6-0.4,0.9-1.1,0.9-1.8l0,0c0-1.3-1-2.3-2.3-2.3c-3.5,0-9.7-1.4-9.7-11.6c0-10.8,3.4-18.5,5-21.6h2.5c1.9,0,3.6-1.4,3.8-3.3
							c0.2-2.2-1.5-4-3.7-4h-1.8c-1.2,0-5.8-1.8-9.9-5.2c8.4-3,14.4-11.2,14-20.7c-0.5-10.8-9.2-19.6-20-20.1
							c-12.1-0.6-22,9.1-22,21c0,9.2,5.9,16.9,14,19.8c-4.1,3.4-8.8,5.2-9.9,5.2h-1.3c-1.9,0-3.6,1.4-3.8,3.3c-0.2,2.2,1.5,4,3.7,4
							h2.2c1.6,3,5,10.8,5,21.6c0,10.1-6.2,11.5-9.7,11.6c-1.3,0-2.3,1-2.3,2.3l0,0c0,0.7,0.3,1.4,0.9,1.8c1.4,1.1,4,3,4.5,3.3
							c0,14.5-16.4,12.6-16.4,21.4c0,5.8,1.8,7.1,3,7.3c-4.9,0.7-4.8,5.8-4.8,5.8v6.5h71.9v-6.5
							C862.5,1409.9,862.5,1404.8,857.6,1404.2z"/>
						<path fill="#939598" d="M862.5,1409.9c0,0,0-5.1-4.8-5.8c1.2-0.2,3-1.5,3-7.3c0-8.8-16.4-6.9-16.4-21.4
							c0.5-0.2,3.1-2.2,4.5-3.3c0.6-0.4,0.9-1.1,0.9-1.8c0-1.3-1-2.3-2.3-2.3c-3.5,0-9.7-1.4-9.7-11.6c0-10.8,3.4-18.5,5-21.6h2.5
							c1.9,0,3.6-1.4,3.8-3.3c0.2-2.2-1.5-4-3.7-4h-1.8c-1.2,0-5.8-1.8-9.9-5.2c8.4-3,14.4-11.2,14-20.7c-0.5-10.8-9.2-19.6-20-20.1
							c-0.3,0-0.7,0-1,0v134.9h35.9V1409.9z"/>
					</g>
				</g>
				<g>
					<path opacity="0.33" fill="#30302F" d="M1048.9,1411.8c-0.7-1.1-1.8-2-3.8-2.3c0.1,0,0.2,0,0.2-0.1c0.1,0,0.2,0,0.2-0.1
						c0.2-0.1,0.3-0.2,0.5-0.3s0.3-0.3,0.5-0.5s0.3-0.4,0.5-0.7c0.6-1.1,1-2.9,1-5.8c0-1.1-0.3-2-0.7-2.9c-0.4-0.8-1.1-1.5-1.9-2.2
						c-0.3-0.3-0.7-0.5-1.1-0.8c-0.6-0.4-1.3-0.9-2-1.3c-0.2-0.1-0.5-0.3-0.7-0.4c-2.6-1.5-5.4-3-7.4-5.6c-1.6-2-2.7-4.6-2.7-8.3
						c0.4-0.2,2.5-1.7,3.9-2.8c0.2-0.2,0.4-0.3,0.6-0.4c0.6-0.4,0.9-1.1,0.9-1.8l0,0c0-1.1-0.8-2-1.8-2.2c-0.1,0-0.3,0-0.5,0
						c-1.5,0-3.6-0.3-5.4-1.4c-0.3-0.2-0.5-0.3-0.8-0.6c-0.4-0.3-0.7-0.7-1.1-1.1c-0.2-0.3-0.5-0.6-0.7-1c-1.1-1.7-1.8-4.1-1.8-7.5
						c0-5.4,0.9-10,1.9-13.7c0.3-0.9,0.5-1.8,0.8-2.6c0.2-0.6,0.4-1.1,0.6-1.6c0.6-1.6,1.3-2.9,1.7-3.8h2.5c1,0,1.9-0.4,2.5-0.9
						c0.2-0.1,0.3-0.3,0.5-0.5c0.4-0.5,0.7-1.2,0.8-1.9c0-0.3,0-0.5,0-0.8c-0.2-1.8-1.8-3.3-3.7-3.3h0h-1.8c-0.3,0-0.8-0.1-1.5-0.3
						c-0.3-0.1-0.7-0.2-1.1-0.4c-0.2-0.1-0.4-0.2-0.6-0.3c-0.4-0.2-0.9-0.4-1.4-0.7c-1.7-0.9-3.6-2-5.4-3.5c3.2-1.1,6-3,8.2-5.3
						c2.6-2.8,4.5-6.3,5.3-10.2c0.1-0.6,0.2-1.1,0.3-1.7c0.1-1.1,0.2-2.3,0.1-3.5c-0.1-2.7-0.7-5.3-1.8-7.6
						c-0.5-1.2-1.2-2.3-1.9-3.3c-0.7-1.1-1.5-2-2.4-2.9c0,0-0.1-0.1-0.1-0.1c-0.8-0.8-1.6-1.4-2.5-2.1c-1.5-1.1-3.1-1.9-4.8-2.6
						c-2-0.8-4.2-1.3-6.5-1.4c-0.1,0-0.1,0-0.2,0c-0.3,0-0.6,0-0.8,0l0,0c-11.6,0-21,9.4-21,21c0,9.2,5.9,16.9,14,19.8
						c-4.1,3.4-8.8,5.2-9.9,5.2h-1.3c-1.9,0-3.6,1.4-3.8,3.3c-0.2,2.2,1.5,4,3.7,4h2.2c1.6,3,5,10.8,5,21.6
						c0,10.1-6.2,11.5-9.7,11.6c-1.3,0-2.3,1-2.3,2.3l0,0c0,0.7,0.3,1.4,0.9,1.8c1.4,1.1,4,3,4.5,3.3c0,14.5-16.4,12.6-16.4,21.4
						c0,5.8,1.8,7.1,3,7.3c-4.9,0.7-4.8,5.8-4.8,5.8v6.5h35.9h35.9l0,0v-6.5C1050,1415.2,1050,1413.4,1048.9,1411.8z"/>
					<g>
						<path fill="#A7A9AC" d="M1040.6,1405.7c1.2-0.2,3-1.5,3-7.3c0-8.8-16.4-6.9-16.4-21.4c0.5-0.2,3.1-2.2,4.5-3.3
							c0.6-0.4,0.9-1.1,0.9-1.8l0,0c0-1.3-1-2.3-2.3-2.3c-3.5,0-9.7-1.4-9.7-11.6c0-10.8,3.4-18.5,5-21.6h2.5c1.9,0,3.6-1.4,3.8-3.3
							c0.2-2.2-1.5-4-3.7-4h-1.8c-1.2,0-5.8-1.8-9.9-5.2c8.4-3,14.4-11.2,14-20.7c-0.5-10.8-9.2-19.6-20-20.1
							c-12.1-0.6-22,9.1-22,21c0,9.2,5.9,16.9,14,19.8c-4.1,3.4-8.8,5.2-9.9,5.2h-1.3c-1.9,0-3.6,1.4-3.8,3.3c-0.2,2.2,1.5,4,3.7,4
							h2.2c1.6,3,5,10.8,5,21.6c0,10.1-6.2,11.5-9.7,11.6c-1.3,0-2.3,1-2.3,2.3l0,0c0,0.7,0.3,1.4,0.9,1.8c1.4,1.1,4,3,4.5,3.3
							c0,14.5-16.4,12.6-16.4,21.4c0,5.8,1.8,7.1,3,7.3c-4.9,0.7-4.8,5.8-4.8,5.8v6.5h71.9v-6.5
							C1045.5,1411.5,1045.5,1406.4,1040.6,1405.7z"/>
						<path fill="#939598" d="M1045.5,1411.5c0,0,0-5.1-4.8-5.8c1.2-0.2,3-1.5,3-7.3c0-8.8-16.4-6.9-16.4-21.4
							c0.5-0.2,3.1-2.2,4.5-3.3c0.6-0.4,0.9-1.1,0.9-1.8c0-1.3-1-2.3-2.3-2.3c-3.5,0-9.7-1.4-9.7-11.6c0-10.8,3.4-18.5,5-21.6h2.5
							c1.9,0,3.6-1.4,3.8-3.3c0.2-2.2-1.5-4-3.7-4h-1.8c-1.2,0-5.8-1.8-9.9-5.2c8.4-3,14.4-11.2,14-20.7c-0.5-10.8-9.2-19.6-20-20.1
							c-0.3,0-0.7,0-1,0V1418h35.9V1411.5z"/>
					</g>
				</g>
				<g>
					<path opacity="0.33" fill="#30302F" d="M1232,1410.2c-0.7-1.1-1.8-2-3.8-2.3c0.1,0,0.2,0,0.2-0.1c0.1,0,0.2,0,0.2-0.1
						c0.2-0.1,0.3-0.2,0.5-0.3s0.3-0.3,0.5-0.5s0.3-0.4,0.5-0.7c0.6-1.1,1-2.9,1-5.8c0-1.1-0.3-2-0.7-2.9c-0.4-0.8-1.1-1.5-1.9-2.2
						c-0.3-0.3-0.7-0.5-1.1-0.8c-0.6-0.4-1.3-0.9-2-1.3c-0.2-0.1-0.5-0.3-0.7-0.4c-2.6-1.5-5.4-3-7.4-5.6c-1.6-2-2.7-4.6-2.7-8.3
						c0.4-0.2,2.5-1.7,3.9-2.8c0.2-0.2,0.4-0.3,0.6-0.4c0.6-0.4,0.9-1.1,0.9-1.8l0,0c0-1.1-0.8-2-1.8-2.2c-0.1,0-0.3,0-0.5,0
						c-1.5,0-3.6-0.3-5.4-1.4c-0.3-0.2-0.5-0.3-0.8-0.6c-0.4-0.3-0.7-0.7-1.1-1.1c-0.2-0.3-0.5-0.6-0.7-1c-1.1-1.7-1.8-4.1-1.8-7.5
						c0-5.4,0.9-10,1.9-13.7c0.3-0.9,0.5-1.8,0.8-2.6c0.2-0.6,0.4-1.1,0.6-1.6c0.6-1.6,1.3-2.9,1.7-3.8h2.5c1,0,1.9-0.4,2.5-0.9
						c0.2-0.1,0.3-0.3,0.5-0.5c0.4-0.5,0.7-1.2,0.8-1.9c0-0.3,0-0.5,0-0.8c-0.2-1.8-1.8-3.3-3.7-3.3l0,0h-1.8
						c-0.3,0-0.8-0.1-1.5-0.3c-0.3-0.1-0.7-0.2-1.1-0.4c-0.2-0.1-0.4-0.2-0.6-0.3c-0.4-0.2-0.9-0.4-1.4-0.7c-1.7-0.9-3.6-2-5.4-3.5
						c3.2-1.1,6-3,8.2-5.3c2.6-2.8,4.5-6.3,5.3-10.2c0.1-0.6,0.2-1.1,0.3-1.7c0.1-1.1,0.2-2.3,0.1-3.5c-0.1-2.7-0.7-5.3-1.8-7.6
						c-0.5-1.2-1.2-2.3-1.9-3.3c-0.7-1.1-1.5-2-2.4-2.9c0,0-0.1-0.1-0.1-0.1c-0.8-0.8-1.6-1.4-2.5-2.1c-1.5-1.1-3.1-1.9-4.8-2.6
						c-2-0.8-4.2-1.3-6.5-1.4c-0.1,0-0.1,0-0.2,0c-0.3,0-0.6,0-0.8,0l0,0c-11.6,0-21,9.4-21,21c0,9.2,5.9,16.9,14,19.8
						c-4.1,3.4-8.8,5.2-9.9,5.2h-1.3c-1.9,0-3.6,1.4-3.8,3.3c-0.2,2.2,1.5,4,3.7,4h2.2c1.6,3,5,10.8,5,21.6
						c0,10.1-6.2,11.5-9.7,11.6c-1.3,0-2.3,1-2.3,2.3l0,0c0,0.7,0.3,1.4,0.9,1.8c1.4,1.1,4,3,4.5,3.3c0,14.5-16.4,12.6-16.4,21.4
						c0,5.8,1.8,7.1,3,7.3c-4.9,0.7-4.8,5.8-4.8,5.8v6.5h35.9h35.9h0v-6.5C1233,1413.7,1233,1411.8,1232,1410.2z"/>
					<g>
						<path fill="#A7A9AC" d="M1223.7,1404.2c1.2-0.2,3-1.5,3-7.3c0-8.8-16.4-6.9-16.4-21.4c0.5-0.2,3.1-2.2,4.5-3.3
							c0.6-0.4,0.9-1.1,0.9-1.8l0,0c0-1.3-1-2.3-2.3-2.3c-3.5,0-9.7-1.4-9.7-11.6c0-10.8,3.4-18.5,5-21.6h2.5c1.9,0,3.6-1.4,3.8-3.3
							c0.2-2.2-1.5-4-3.7-4h-1.8c-1.2,0-5.8-1.8-9.9-5.2c8.4-3,14.4-11.2,14-20.7c-0.5-10.8-9.2-19.6-20-20.1
							c-12.1-0.6-22,9.1-22,21c0,9.2,5.9,16.9,14,19.8c-4.1,3.4-8.8,5.2-9.9,5.2h-1.3c-1.9,0-3.6,1.4-3.8,3.3c-0.2,2.2,1.5,4,3.7,4
							h2.2c1.6,3,5,10.8,5,21.6c0,10.1-6.2,11.5-9.7,11.6c-1.3,0-2.3,1-2.3,2.3l0,0c0,0.7,0.3,1.4,0.9,1.8c1.4,1.1,4,3,4.5,3.3
							c0,14.5-16.4,12.6-16.4,21.4c0,5.8,1.8,7.1,3,7.3c-4.9,0.7-4.8,5.8-4.8,5.8v6.5h71.9v-6.5
							C1228.5,1409.9,1228.5,1404.8,1223.7,1404.2z"/>
						<path fill="#939598" d="M1228.5,1409.9c0,0,0-5.1-4.8-5.8c1.2-0.2,3-1.5,3-7.3c0-8.8-16.4-6.9-16.4-21.4
							c0.5-0.2,3.1-2.2,4.5-3.3c0.6-0.4,0.9-1.1,0.9-1.8c0-1.3-1-2.3-2.3-2.3c-3.5,0-9.7-1.4-9.7-11.6c0-10.8,3.4-18.5,5-21.6h2.5
							c1.9,0,3.6-1.4,3.8-3.3c0.2-2.2-1.5-4-3.7-4h-1.8c-1.2,0-5.8-1.8-9.9-5.2c8.4-3,14.4-11.2,14-20.7c-0.5-10.8-9.2-19.6-20-20.1
							c-0.3,0-0.7,0-1,0v134.9h35.9V1409.9z"/>
					</g>
				</g>
				<g>
					<path opacity="0.33" fill="#30302F" d="M1415,1411.8c-0.7-1.1-1.8-2-3.8-2.3c0.1,0,0.2,0,0.2-0.1c0.1,0,0.2,0,0.2-0.1
						c0.2-0.1,0.3-0.2,0.5-0.3s0.3-0.3,0.5-0.5s0.3-0.4,0.5-0.7c0.6-1.1,1-2.9,1-5.8c0-1.1-0.3-2-0.7-2.9c-0.4-0.8-1.1-1.5-1.9-2.2
						c-0.3-0.3-0.7-0.5-1.1-0.8c-0.6-0.4-1.3-0.9-2-1.3c-0.2-0.1-0.5-0.3-0.7-0.4c-2.6-1.5-5.4-3-7.4-5.6c-1.6-2-2.7-4.6-2.7-8.3
						c0.4-0.2,2.5-1.7,3.9-2.8c0.2-0.2,0.4-0.3,0.6-0.4c0.6-0.4,0.9-1.1,0.9-1.8l0,0c0-1.1-0.8-2-1.8-2.2c-0.1,0-0.3,0-0.5,0
						c-1.5,0-3.6-0.3-5.4-1.4c-0.3-0.2-0.5-0.3-0.8-0.6c-0.4-0.3-0.7-0.7-1.1-1.1c-0.2-0.3-0.5-0.6-0.7-1c-1.1-1.7-1.8-4.1-1.8-7.5
						c0-5.4,0.9-10,1.9-13.7c0.3-0.9,0.5-1.8,0.8-2.6c0.2-0.6,0.4-1.1,0.6-1.6c0.6-1.6,1.3-2.9,1.7-3.8h2.5c1,0,1.9-0.4,2.5-0.9
						c0.2-0.1,0.3-0.3,0.5-0.5c0.4-0.5,0.7-1.2,0.8-1.9c0-0.3,0-0.5,0-0.8c-0.2-1.8-1.8-3.3-3.7-3.3l0,0h-1.8
						c-0.3,0-0.8-0.1-1.5-0.3c-0.3-0.1-0.7-0.2-1.1-0.4c-0.2-0.1-0.4-0.2-0.6-0.3c-0.4-0.2-0.9-0.4-1.4-0.7c-1.7-0.9-3.6-2-5.4-3.5
						c3.2-1.1,6-3,8.2-5.3c2.6-2.8,4.5-6.3,5.3-10.2c0.1-0.6,0.2-1.1,0.3-1.7c0.1-1.1,0.2-2.3,0.1-3.5c-0.1-2.7-0.7-5.3-1.8-7.6
						c-0.5-1.2-1.2-2.3-1.9-3.3c-0.7-1.1-1.5-2-2.4-2.9c0,0-0.1-0.1-0.1-0.1c-0.8-0.8-1.6-1.4-2.5-2.1c-1.5-1.1-3.1-1.9-4.8-2.6
						c-2-0.8-4.2-1.3-6.5-1.4c-0.1,0-0.1,0-0.2,0c-0.3,0-0.6,0-0.8,0l0,0c-11.6,0-21,9.4-21,21c0,9.2,5.9,16.9,14,19.8
						c-4.1,3.4-8.8,5.2-9.9,5.2h-1.3c-1.9,0-3.6,1.4-3.8,3.3c-0.2,2.2,1.5,4,3.7,4h2.2c1.6,3,5,10.8,5,21.6
						c0,10.1-6.2,11.5-9.7,11.6c-1.3,0-2.3,1-2.3,2.3l0,0c0,0.7,0.3,1.4,0.9,1.8c1.4,1.1,4,3,4.5,3.3c0,14.5-16.4,12.6-16.4,21.4
						c0,5.8,1.8,7.1,3,7.3c-4.9,0.7-4.8,5.8-4.8,5.8v6.5h35.9h35.9h0v-6.5C1416,1415.2,1416,1413.4,1415,1411.8z"/>
					<g>
						<path fill="#A7A9AC" d="M1406.7,1405.7c1.2-0.2,3-1.5,3-7.3c0-8.8-16.4-6.9-16.4-21.4c0.5-0.2,3.1-2.2,4.5-3.3
							c0.6-0.4,0.9-1.1,0.9-1.8l0,0c0-1.3-1-2.3-2.3-2.3c-3.5,0-9.7-1.4-9.7-11.6c0-10.8,3.4-18.5,5-21.6h2.5c1.9,0,3.6-1.4,3.8-3.3
							c0.2-2.2-1.5-4-3.7-4h-1.8c-1.2,0-5.8-1.8-9.9-5.2c8.4-3,14.4-11.2,14-20.7c-0.5-10.8-9.2-19.6-20-20.1
							c-12.1-0.6-22,9.1-22,21c0,9.2,5.9,16.9,14,19.8c-4.1,3.4-8.8,5.2-9.9,5.2h-1.3c-1.9,0-3.6,1.4-3.8,3.3c-0.2,2.2,1.5,4,3.7,4
							h2.2c1.6,3,5,10.8,5,21.6c0,10.1-6.2,11.5-9.7,11.6c-1.3,0-2.3,1-2.3,2.3l0,0c0,0.7,0.3,1.4,0.9,1.8c1.4,1.1,4,3,4.5,3.3
							c0,14.5-16.4,12.6-16.4,21.4c0,5.8,1.8,7.1,3,7.3c-4.9,0.7-4.8,5.8-4.8,5.8v6.5h71.9v-6.5
							C1411.5,1411.5,1411.6,1406.4,1406.7,1405.7z"/>
						<path fill="#939598" d="M1411.5,1411.5c0,0,0-5.1-4.8-5.8c1.2-0.2,3-1.5,3-7.3c0-8.8-16.4-6.9-16.4-21.4
							c0.5-0.2,3.1-2.2,4.5-3.3c0.6-0.4,0.9-1.1,0.9-1.8c0-1.3-1-2.3-2.3-2.3c-3.5,0-9.7-1.4-9.7-11.6c0-10.8,3.4-18.5,5-21.6h2.5
							c1.9,0,3.6-1.4,3.8-3.3c0.2-2.2-1.5-4-3.7-4h-1.8c-1.2,0-5.8-1.8-9.9-5.2c8.4-3,14.4-11.2,14-20.7c-0.5-10.8-9.2-19.6-20-20.1
							c-0.3,0-0.7,0-1,0V1418h35.9V1411.5z"/>
					</g>
				</g>
				<g>
					<path opacity="0.33" fill="#30302F" d="M1598,1411.8c-0.7-1.1-1.8-2-3.8-2.3c0.1,0,0.2,0,0.2-0.1c0.1,0,0.2,0,0.2-0.1
						c0.2-0.1,0.3-0.2,0.5-0.3s0.3-0.3,0.5-0.5s0.3-0.4,0.5-0.7c0.6-1.1,1-2.9,1-5.8c0-1.1-0.3-2-0.7-2.9c-0.4-0.8-1.1-1.5-1.9-2.2
						c-0.3-0.3-0.7-0.5-1.1-0.8c-0.6-0.4-1.3-0.9-2-1.3c-0.2-0.1-0.5-0.3-0.7-0.4c-2.6-1.5-5.4-3-7.4-5.6c-1.6-2-2.7-4.6-2.7-8.3
						c0.4-0.2,2.5-1.7,3.9-2.8c0.2-0.2,0.4-0.3,0.6-0.4c0.6-0.4,0.9-1.1,0.9-1.8l0,0c0-1.1-0.8-2-1.8-2.2c-0.1,0-0.3,0-0.5,0
						c-1.5,0-3.6-0.3-5.4-1.4c-0.3-0.2-0.5-0.3-0.8-0.6c-0.4-0.3-0.7-0.7-1.1-1.1c-0.2-0.3-0.5-0.6-0.7-1c-1.1-1.7-1.8-4.1-1.8-7.5
						c0-5.4,0.9-10,1.9-13.7c0.3-0.9,0.5-1.8,0.8-2.6c0.2-0.6,0.4-1.1,0.6-1.6c0.6-1.6,1.3-2.9,1.7-3.8h2.5c1,0,1.9-0.4,2.5-0.9
						c0.2-0.1,0.3-0.3,0.5-0.5c0.4-0.5,0.7-1.2,0.8-1.9c0-0.3,0-0.5,0-0.8c-0.2-1.8-1.8-3.3-3.7-3.3l0,0h-1.8
						c-0.3,0-0.8-0.1-1.5-0.3c-0.3-0.1-0.7-0.2-1.1-0.4c-0.2-0.1-0.4-0.2-0.6-0.3c-0.4-0.2-0.9-0.4-1.4-0.7c-1.7-0.9-3.6-2-5.4-3.5
						c3.2-1.1,6-3,8.2-5.3c2.6-2.8,4.5-6.3,5.3-10.2c0.1-0.6,0.2-1.1,0.3-1.7c0.1-1.1,0.2-2.3,0.1-3.5c-0.1-2.7-0.7-5.3-1.8-7.6
						c-0.5-1.2-1.2-2.3-1.9-3.3c-0.7-1.1-1.5-2-2.4-2.9c0,0-0.1-0.1-0.1-0.1c-0.8-0.8-1.6-1.4-2.5-2.1c-1.5-1.1-3.1-1.9-4.8-2.6
						c-2-0.8-4.2-1.3-6.5-1.4c-0.1,0-0.1,0-0.2,0c-0.3,0-0.6,0-0.8,0l0,0c-11.6,0-21,9.4-21,21c0,9.2,5.9,16.9,14,19.8
						c-4.1,3.4-8.8,5.2-9.9,5.2h-1.3c-1.9,0-3.6,1.4-3.8,3.3c-0.2,2.2,1.5,4,3.7,4h2.2c1.6,3,5,10.8,5,21.6
						c0,10.1-6.2,11.5-9.7,11.6c-1.3,0-2.3,1-2.3,2.3l0,0c0,0.7,0.3,1.4,0.9,1.8c1.4,1.1,4,3,4.5,3.3c0,14.5-16.4,12.6-16.4,21.4
						c0,5.8,1.8,7.1,3,7.3c-4.9,0.7-4.8,5.8-4.8,5.8v6.5h35.9h35.9h0v-6.5C1599,1415.2,1599,1413.4,1598,1411.8z"/>
					<g>
						<path fill="#A7A9AC" d="M1589.7,1405.7c1.2-0.2,3-1.5,3-7.3c0-8.8-16.4-6.9-16.4-21.4c0.5-0.2,3.1-2.2,4.5-3.3
							c0.6-0.4,0.9-1.1,0.9-1.8l0,0c0-1.3-1-2.3-2.3-2.3c-3.5,0-9.7-1.4-9.7-11.6c0-10.8,3.4-18.5,5-21.6h2.5c1.9,0,3.6-1.4,3.8-3.3
							c0.2-2.2-1.5-4-3.7-4h-1.8c-1.2,0-5.8-1.8-9.9-5.2c8.4-3,14.4-11.2,14-20.7c-0.5-10.8-9.2-19.6-20-20.1
							c-12.1-0.6-22,9.1-22,21c0,9.2,5.9,16.9,14,19.8c-4.1,3.4-8.8,5.2-9.9,5.2h-1.3c-1.9,0-3.6,1.4-3.8,3.3c-0.2,2.2,1.5,4,3.7,4
							h2.2c1.6,3,5,10.8,5,21.6c0,10.1-6.2,11.5-9.7,11.6c-1.3,0-2.3,1-2.3,2.3l0,0c0,0.7,0.3,1.4,0.9,1.8c1.4,1.1,4,3,4.5,3.3
							c0,14.5-16.4,12.6-16.4,21.4c0,5.8,1.8,7.1,3,7.3c-4.9,0.7-4.8,5.8-4.8,5.8v6.5h71.9v-6.5
							C1594.5,1411.5,1594.6,1406.4,1589.7,1405.7z"/>
						<path fill="#939598" d="M1594.5,1411.5c0,0,0-5.1-4.8-5.8c1.2-0.2,3-1.5,3-7.3c0-8.8-16.4-6.9-16.4-21.4
							c0.5-0.2,3.1-2.2,4.5-3.3c0.6-0.4,0.9-1.1,0.9-1.8c0-1.3-1-2.3-2.3-2.3c-3.5,0-9.7-1.4-9.7-11.6c0-10.8,3.4-18.5,5-21.6h2.5
							c1.9,0,3.6-1.4,3.8-3.3c0.2-2.2-1.5-4-3.7-4h-1.8c-1.2,0-5.8-1.8-9.9-5.2c8.4-3,14.4-11.2,14-20.7c-0.5-10.8-9.2-19.6-20-20.1
							c-0.3,0-0.7,0-1,0V1418h35.9V1411.5z"/>
					</g>
				</g>
				<g>
					<path opacity="0.33" fill="#30302F" d="M1781,1411.8c-0.7-1.1-1.8-2-3.8-2.3c0.1,0,0.2,0,0.2-0.1c0.1,0,0.2,0,0.2-0.1
						c0.2-0.1,0.3-0.2,0.5-0.3s0.3-0.3,0.5-0.5s0.3-0.4,0.5-0.7c0.6-1.1,1-2.9,1-5.8c0-1.1-0.3-2-0.7-2.9c-0.4-0.8-1.1-1.5-1.9-2.2
						c-0.3-0.3-0.7-0.5-1.1-0.8c-0.6-0.4-1.3-0.9-2-1.3c-0.2-0.1-0.5-0.3-0.7-0.4c-2.6-1.5-5.4-3-7.4-5.6c-1.6-2-2.7-4.6-2.7-8.3
						c0.4-0.2,2.5-1.7,3.9-2.8c0.2-0.2,0.4-0.3,0.6-0.4c0.6-0.4,0.9-1.1,0.9-1.8l0,0c0-1.1-0.8-2-1.8-2.2c-0.1,0-0.3,0-0.5,0
						c-1.5,0-3.6-0.3-5.4-1.4c-0.3-0.2-0.5-0.3-0.8-0.6c-0.4-0.3-0.7-0.7-1.1-1.1c-0.2-0.3-0.5-0.6-0.7-1c-1.1-1.7-1.8-4.1-1.8-7.5
						c0-5.4,0.9-10,1.9-13.7c0.3-0.9,0.5-1.8,0.8-2.6c0.2-0.6,0.4-1.1,0.6-1.6c0.6-1.6,1.3-2.9,1.7-3.8h2.5c1,0,1.9-0.4,2.5-0.9
						c0.2-0.1,0.3-0.3,0.5-0.5c0.4-0.5,0.7-1.2,0.8-1.9c0-0.3,0-0.5,0-0.8c-0.2-1.8-1.8-3.3-3.7-3.3l0,0h-1.8
						c-0.3,0-0.8-0.1-1.5-0.3c-0.3-0.1-0.7-0.2-1.1-0.4c-0.2-0.1-0.4-0.2-0.6-0.3c-0.4-0.2-0.9-0.4-1.4-0.7c-1.7-0.9-3.6-2-5.4-3.5
						c3.2-1.1,6-3,8.2-5.3c2.6-2.8,4.5-6.3,5.3-10.2c0.1-0.6,0.2-1.1,0.3-1.7c0.1-1.1,0.2-2.3,0.1-3.5c-0.1-2.7-0.7-5.3-1.8-7.6
						c-0.5-1.2-1.2-2.3-1.9-3.3c-0.7-1.1-1.5-2-2.4-2.9c0,0-0.1-0.1-0.1-0.1c-0.8-0.8-1.6-1.4-2.5-2.1c-1.5-1.1-3.1-1.9-4.8-2.6
						c-2-0.8-4.2-1.3-6.5-1.4c-0.1,0-0.1,0-0.2,0c-0.3,0-0.6,0-0.8,0l0,0c-11.6,0-21,9.4-21,21c0,9.2,5.9,16.9,14,19.8
						c-4.1,3.4-8.8,5.2-9.9,5.2h-1.3c-1.9,0-3.6,1.4-3.8,3.3c-0.2,2.2,1.5,4,3.7,4h2.2c1.6,3,5,10.8,5,21.6
						c0,10.1-6.2,11.5-9.7,11.6c-1.3,0-2.3,1-2.3,2.3l0,0c0,0.7,0.3,1.4,0.9,1.8c1.4,1.1,4,3,4.5,3.3c0,14.5-16.4,12.6-16.4,21.4
						c0,5.8,1.8,7.1,3,7.3c-4.9,0.7-4.8,5.8-4.8,5.8v6.5h35.9h35.9h0v-6.5C1782,1415.2,1782,1413.4,1781,1411.8z"/>
					<g>
						<path fill="#A7A9AC" d="M1772.7,1405.7c1.2-0.2,3-1.5,3-7.3c0-8.8-16.4-6.9-16.4-21.4c0.5-0.2,3.1-2.2,4.5-3.3
							c0.6-0.4,0.9-1.1,0.9-1.8l0,0c0-1.3-1-2.3-2.3-2.3c-3.5,0-9.7-1.4-9.7-11.6c0-10.8,3.4-18.5,5-21.6h2.5c1.9,0,3.6-1.4,3.8-3.3
							c0.2-2.2-1.5-4-3.7-4h-1.8c-1.2,0-5.8-1.8-9.9-5.2c8.4-3,14.4-11.2,14-20.7c-0.5-10.8-9.2-19.6-20-20.1
							c-12.1-0.6-22,9.1-22,21c0,9.2,5.9,16.9,14,19.8c-4.1,3.4-8.8,5.2-9.9,5.2h-1.3c-1.9,0-3.6,1.4-3.8,3.3c-0.2,2.2,1.5,4,3.7,4
							h2.2c1.6,3,5,10.8,5,21.6c0,10.1-6.2,11.5-9.7,11.6c-1.3,0-2.3,1-2.3,2.3l0,0c0,0.7,0.3,1.4,0.9,1.8c1.4,1.1,4,3,4.5,3.3
							c0,14.5-16.4,12.6-16.4,21.4c0,5.8,1.8,7.1,3,7.3c-4.9,0.7-4.8,5.8-4.8,5.8v6.5h71.9v-6.5
							C1777.5,1411.5,1777.6,1406.4,1772.7,1405.7z"/>
						<path fill="#939598" d="M1777.5,1411.5c0,0,0-5.1-4.8-5.8c1.2-0.2,3-1.5,3-7.3c0-8.8-16.4-6.9-16.4-21.4
							c0.5-0.2,3.1-2.2,4.5-3.3c0.6-0.4,0.9-1.1,0.9-1.8c0-1.3-1-2.3-2.3-2.3c-3.5,0-9.7-1.4-9.7-11.6c0-10.8,3.4-18.5,5-21.6h2.5
							c1.9,0,3.6-1.4,3.8-3.3c0.2-2.2-1.5-4-3.7-4h-1.8c-1.2,0-5.8-1.8-9.9-5.2c8.4-3,14.4-11.2,14-20.7c-0.5-10.8-9.2-19.6-20-20.1
							c-0.3,0-0.7,0-1,0V1418h35.9V1411.5z"/>
					</g>
				</g>
			</g>
			<g>
				<path opacity="0.33" fill="#30302F" d="M697.9,1641.9c1.6-1.5,3.7-4,3.4-9c-0.4-7.5-20.3-15.3-23.9-20.3h9.8
					c1.7,0,3.2-1.4,3.2-3.2s-1.4-3.2-3.2-3.2H679v-5.7c5.6-0.1,9.2-0.2,9.5-0.5c0.9-0.9,17-92.7-16.1-124.8c0,0,4.1-11.5,3.2-11.3
					c-0.9,0.2-12.9,13.7-12.9,12.8c0-0.9-10.2-12.6-10.1-12.1s-0.5,13.2-0.5,13.2l-10.7,4.7c0,0-31,26.5-31,27
					c0,0.5-4.1,3.3-4.1,3.8s5.7,14,6.1,14c0.5,0,7.1,2.7,7.4,2.2c0.3-0.5,11.3-8,11.3-8s8.2-1.1,8.7-0.8c0.5,0.3,11.5,1.9,12.9,4.4
					c0,0-9.9,43.3-38.5,70.1l-0.8,4.9c1.2,0.2,7.5,0.3,15.9,0.4v5.7h-11.8c-1.7,0-3.2,1.4-3.2,3.2s1.4,3.2,3.2,3.2h9.8
					c-3.6,5-23.5,12.9-23.9,20.3c-0.3,5,1.7,7.5,3.4,9c-2.6,1.7-3.4,4.1-3.4,4.1v9.9h49h49v-9.9
					C701.4,1646,700.5,1643.6,697.9,1641.9z"/>
				<path fill="#A7A9AC" d="M689.3,1637.3c1.6-1.5,3.7-4,3.4-9c-0.4-7.5-20.3-15.3-23.9-20.3h9.8c1.7,0,3.2-1.4,3.2-3.2
					s-1.4-3.2-3.2-3.2h-8.2v-5.7c5.6-0.1,9.2-0.2,9.5-0.5c0.9-0.9,17-92.7-16.1-124.8c0,0,4.1-11.5,3.2-11.3s-12.9,13.7-12.9,12.8
					c0-0.9-10.2-12.6-10.1-12.1c0.2,0.5-0.5,13.2-0.5,13.2l-10.7,4.7c0,0-31,26.5-31,27s-4.1,3.3-4.1,3.8c0,0.5,5.7,14,6.1,14
					c0.5,0,7.1,2.7,7.4,2.2c0.3-0.5,11.3-8,11.3-8s8.2-1.1,8.7-0.8c0.5,0.3,11.5,1.9,12.9,4.4c0,0-9.9,43.3-38.5,70.1l-0.8,4.9
					c1.2,0.2,7.5,0.3,15.9,0.4v5.7h-11.8c-1.7,0-3.2,1.4-3.2,3.2s1.4,3.2,3.2,3.2h9.8c-3.6,5-23.5,12.9-23.9,20.3
					c-0.3,5,1.7,7.5,3.4,9c-2.6,1.7-3.4,4.1-3.4,4.1v9.9h49h49v-9.9C692.7,1641.4,691.9,1639.1,689.3,1637.3z"/>
				<path fill="#939598" d="M689.3,1637.3c1.6-1.5,3.7-4,3.4-9c-0.4-7.5-20.3-15.3-23.9-20.3h9.8c1.7,0,3.2-1.4,3.2-3.2
					c0-1.7-1.4-3.2-3.2-3.2h-8.2v-5.7c5.6-0.1,9.2-0.2,9.5-0.5c0.9-0.9,17-92.7-16.1-124.8c0,0,4.1-11.5,3.2-11.3
					c-0.9,0.1-11.5,12.1-12.8,12.8v179.2h38.7v-9.9C692.7,1641.4,691.9,1639.1,689.3,1637.3z"/>
			</g>
			<g>
				<path opacity="0.33" fill="#30302F" d="M1608.5,1641.9c1.6-1.5,3.7-4,3.4-9c-0.4-7.5-20.3-15.3-23.9-20.3h9.8
					c1.7,0,3.2-1.4,3.2-3.2s-1.4-3.2-3.2-3.2h-8.2v-5.7c5.6-0.1,9.2-0.2,9.5-0.5c0.9-0.9,17-92.7-16.1-124.8c0,0,4.1-11.5,3.2-11.3
					c-0.9,0.2-12.9,13.7-12.9,12.8c0-0.9-10.2-12.6-10.1-12.1s-0.5,13.2-0.5,13.2l-10.7,4.7c0,0-31,26.5-31,27
					c0,0.5-4.1,3.3-4.1,3.8s5.7,14,6.1,14s7.1,2.7,7.4,2.2c0.3-0.5,11.3-8,11.3-8s8.2-1.1,8.7-0.8c0.5,0.3,11.5,1.9,12.9,4.4
					c0,0-9.9,43.3-38.5,70.1l-0.8,4.9c1.2,0.2,7.5,0.3,15.9,0.4v5.7h-11.8c-1.7,0-3.2,1.4-3.2,3.2s1.4,3.2,3.2,3.2h9.8
					c-3.6,5-23.5,12.9-23.9,20.3c-0.3,5,1.7,7.5,3.4,9c-2.6,1.7-3.4,4.1-3.4,4.1v9.9h49h49v-9.9
					C1611.9,1646,1611.1,1643.6,1608.5,1641.9z"/>
				<path fill="#A7A9AC" d="M1599.9,1637.3c1.6-1.5,3.7-4,3.4-9c-0.4-7.5-20.3-15.3-23.9-20.3h9.8c1.7,0,3.2-1.4,3.2-3.2
					s-1.4-3.2-3.2-3.2h-8.2v-5.7c5.6-0.1,9.2-0.2,9.5-0.5c0.9-0.9,17-92.7-16.1-124.8c0,0,4.1-11.5,3.2-11.3
					c-0.9,0.2-12.9,13.7-12.9,12.8c0-0.9-10.2-12.6-10.1-12.1c0.2,0.5-0.5,13.2-0.5,13.2l-10.7,4.7c0,0-31,26.5-31,27
					s-4.1,3.3-4.1,3.8c0,0.5,5.7,14,6.1,14c0.5,0,7.1,2.7,7.4,2.2c0.3-0.5,11.3-8,11.3-8s8.2-1.1,8.7-0.8c0.5,0.3,11.5,1.9,12.9,4.4
					c0,0-9.9,43.3-38.5,70.1l-0.8,4.9c1.2,0.2,7.5,0.3,15.9,0.4v5.7h-11.8c-1.7,0-3.2,1.4-3.2,3.2s1.4,3.2,3.2,3.2h9.8
					c-3.6,5-23.5,12.9-23.9,20.3c-0.3,5,1.7,7.5,3.4,9c-2.6,1.7-3.4,4.1-3.4,4.1v9.9h49h49v-9.9
					C1603.3,1641.4,1602.5,1639.1,1599.9,1637.3z"/>
				<path fill="#939598" d="M1599.9,1637.3c1.6-1.5,3.7-4,3.4-9c-0.4-7.5-20.3-15.3-23.9-20.3h9.8c1.7,0,3.2-1.4,3.2-3.2
					c0-1.7-1.4-3.2-3.2-3.2h-8.2v-5.7c5.6-0.1,9.2-0.2,9.5-0.5c0.9-0.9,17-92.7-16.1-124.8c0,0,4.1-11.5,3.2-11.3
					c-0.9,0.1-11.5,12.1-12.8,12.8v179.2h38.7v-9.9C1603.3,1641.4,1602.5,1639.1,1599.9,1637.3z"/>
			</g>
			<g>
				<path opacity="0.33" fill="#30302F" d="M870.5,1636.5c0,0,4.4-3.2,4.4-11.3c0-8.1-18.2-18.5-18.2-29.3c0-10.7,7.3-9.6,7.3-10
					c0-0.5,0-5.9,0-5.9s-10-0.2-11.7-8.1c-0.7-3.1-1.9-14.8-3.2-27.7h7.4c2.2,0,4.1-1.8,4.1-4.1v-1.6c0-2.2-1.8-4.1-4.1-4.1H853
					c1.9,0,3.4-1.5,3.4-3.4l0,0c0-1.9-1.5-3.4-3.4-3.4h-5.3c-0.3-3-0.5-5.9-0.8-8.6c5.2-4.2,14.7-13.4,14.7-23.3
					c0-13.6-7.6-25.3-13.6-33.7c-6-8.4-6.4-16.5-6.4-16.5s-0.2,0-0.5,0c3.3-1.3,5.4-3.5,5.4-5.9c0-4.1-6.1-7.3-13.5-7.3
					s-13.5,3.3-13.5,7.3c0,2.4,2.1,4.5,5.4,5.9c-0.3,0-0.5,0-0.5,0s-0.5,8.1-6.4,16.5c-6,8.4-13.6,20.1-13.6,33.7
					c0,9.8,9.3,18.9,14.5,23.2c-0.2,2.7-0.5,5.7-0.8,8.8h-5.1c-1.9,0-3.4,1.5-3.4,3.4l0,0c0,1.9,1.5,3.4,3.4,3.4h-3.6
					c-2.2,0-4.1,1.8-4.1,4.1v1.6c0,2.2,1.8,4.1,4.1,4.1h7.2c-1.3,12.9-2.5,24.6-3.2,27.7c-1.7,7.9-11.7,8.1-11.7,8.1s0,5.4,0,5.9
					c0,0.5,7.3-0.7,7.3,10c0,10.7-18.2,21.1-18.2,29.3c0,8.1,4.4,11.3,4.4,11.3c-3.4,1.3-4.4,5.5-4.4,5.5v11.1h42.2h0.1h42.2V1642
					C874.9,1642,873.9,1637.9,870.5,1636.5z"/>
				<path fill="#FFFFFF" d="M863.7,1634.5c0,0,4.4-3.2,4.4-11.3c0-8.1-18.2-18.5-18.2-29.3c0-10.7,7.3-9.6,7.3-10c0-0.5,0-5.9,0-5.9
					s-10-0.2-11.7-8.1c-0.7-3.1-1.9-14.8-3.2-27.7h7.4c2.2,0,4.1-1.8,4.1-4.1v-1.6c0-2.2-1.8-4.1-4.1-4.1h-3.6
					c1.9,0,3.4-1.5,3.4-3.4l0,0c0-1.9-1.5-3.4-3.4-3.4h-5.3c-0.3-3-0.5-5.9-0.8-8.6c5.2-4.2,14.7-13.4,14.7-23.3
					c0-13.6-7.6-25.3-13.6-33.7c-6-8.4-6.4-16.5-6.4-16.5s-0.2,0-0.5,0c3.3-1.3,5.4-3.5,5.4-5.9c0-4.1-6.1-7.3-13.5-7.3
					s-13.5,3.3-13.5,7.3c0,2.4,2.1,4.5,5.4,5.9c-0.3,0-0.5,0-0.5,0s-0.5,8.1-6.4,16.5c-6,8.4-13.6,20.1-13.6,33.7
					c0,9.8,9.3,18.9,14.5,23.2c-0.2,2.7-0.5,5.7-0.8,8.8h-5.1c-1.9,0-3.4,1.5-3.4,3.4l0,0c0,1.9,1.5,3.4,3.4,3.4h-3.6
					c-2.2,0-4.1,1.8-4.1,4.1v1.6c0,2.2,1.8,4.1,4.1,4.1h7.2c-1.3,12.9-2.5,24.6-3.2,27.7c-1.7,7.9-11.7,8.1-11.7,8.1s0,5.4,0,5.9
					c0,0.5,7.3-0.7,7.3,10c0,10.7-18.2,21.1-18.2,29.3c0,8.1,4.4,11.3,4.4,11.3c-3.4,1.3-4.4,5.5-4.4,5.5v11.1h42.2h0.1h42.2V1640
					C868.1,1640,867.1,1635.9,863.7,1634.5z"/>
				<path fill="#A7A9AC" d="M863.7,1634.5c0,0,4.4-3.2,4.4-11.3c0-8.1-18.2-18.5-18.2-29.3c0-10.7,7.3-9.6,7.3-10c0-0.5,0-5.9,0-5.9
					s-10-0.2-11.7-8.1c-0.7-3.1-1.9-14.8-3.2-27.7h7.4c2.2,0,4.1-1.8,4.1-4.1v-1.6c0-2.2-1.8-4.1-4.1-4.1h-3.6
					c1.9,0,3.4-1.5,3.4-3.4l0,0c0-1.9-1.5-3.4-3.4-3.4h-5.3c-0.3-3-0.5-5.9-0.8-8.6c5.2-4.2,14.7-13.4,14.7-23.3
					c0-13.6-7.6-25.3-13.6-33.7c-6-8.4-6.4-16.5-6.4-16.5s-0.2,0-0.5,0c3.3-1.3,5.4-3.5,5.4-5.9c0-4.1-6.1-7.3-13.5-7.3
					s-13.5,3.3-13.5,7.3c0,2.4,2.1,4.5,5.4,5.9c-0.3,0-0.5,0-0.5,0s-0.5,8.1-6.4,16.5c-6,8.4-13.6,20.1-13.6,33.7
					c0,9.8,9.3,18.9,14.5,23.2c-0.2,2.7-0.5,5.7-0.8,8.8h-5.1c-1.9,0-3.4,1.5-3.4,3.4l0,0c0,1.9,1.5,3.4,3.4,3.4h-3.6
					c-2.2,0-4.1,1.8-4.1,4.1v1.6c0,2.2,1.8,4.1,4.1,4.1h7.2c-1.3,12.9-2.5,24.6-3.2,27.7c-1.7,7.9-11.7,8.1-11.7,8.1s0,5.4,0,5.9
					c0,0.5,7.3-0.7,7.3,10c0,10.7-18.2,21.1-18.2,29.3c0,8.1,4.4,11.3,4.4,11.3c-3.4,1.3-4.4,5.5-4.4,5.5v11.1h42.2h0.1h42.2V1640
					C868.1,1640,867.1,1635.9,863.7,1634.5z"/>
				<path fill="#939598" d="M863.7,1634.5c0,0,4.4-3.2,4.4-11.3c0-8.1-18.2-18.5-18.2-29.3s7.3-9.6,7.3-10c0-0.5,0-5.9,0-5.9
					s-10-0.2-11.7-8.1c-0.7-3.1-1.9-14.8-3.2-27.7h7.4c2.2,0,4.1-1.8,4.1-4.1v-1.6c0-2.2-1.8-4.1-4.1-4.1h-3.6
					c1.9,0,3.4-1.5,3.4-3.4s-1.5-3.4-3.4-3.4h-5.3c-0.3-3-0.5-5.9-0.8-8.6c5.2-4.2,14.7-13.4,14.7-23.3c0-13.6-7.6-25.3-13.6-33.7
					s-6.4-16.5-6.4-16.5s-0.2,0-0.5,0c3.3-1.3,5.4-3.5,5.4-5.9c0-4.1-6.1-7.3-13.5-7.3c0,0-0.1,0-0.1,0v220.6h0h42.2V1640
					C868.1,1640,867.1,1635.9,863.7,1634.5z"/>
			</g>
			<g>
				<path opacity="0.33" fill="#30302F" d="M514.5,1641.3c0,0,5.5-2.8,5.5-10s-22.5-16.3-22.5-25.7c0-9.5,9-8.4,9-8.8s0-5.1,0-5.1
					s-12.4-0.2-14.5-7.1c-1.5-5.1-5.5-35.6-7.4-51.4h6.5c2.7,0,4.8-2.2,4.8-4.8c0-2.7-2.2-4.8-4.8-4.8h4.8c3.2,0,5.8-2.6,5.8-5.8
					l0,0c0-3.2-2.6-5.8-5.8-5.8c2.1-7,9.2-27.5,9.2-27.5h-11l-4.6,13.3h-10.2l3.5-13.3h-15.1h-15.1l3.5,13.3h-10.2l-4.6-13.3h-11
					c0,0,7.1,20.5,9.2,27.5c-3.2,0-5.8,2.6-5.8,5.8l0,0c0,3.2,2.6,5.8,5.8,5.8h4.8c-2.7,0-4.8,2.2-4.8,4.8c0,2.7,2.2,4.8,4.8,4.8
					h6.5c-2,15.8-5.9,46.3-7.4,51.4c-2.1,6.9-14.5,7.1-14.5,7.1s0,4.7,0,5.1s9-0.6,9,8.8c0,9.5-22.5,18.6-22.5,25.7s5.5,10,5.5,10
					c-4.2,1.2-5.5,4.8-5.5,4.8v9.8h52.2h0.1h52.2v-9.8C519.9,1646.1,518.7,1642.4,514.5,1641.3z"/>
				<path fill="#A7A9AC" d="M509.1,1639.3c0,0,5.5-2.8,5.5-10s-22.5-16.3-22.5-25.7c0-9.5,9-8.4,9-8.8s0-5.1,0-5.1
					s-12.4-0.2-14.5-7.1c-1.5-5.1-5.5-35.6-7.4-51.4h6.5c2.7,0,4.8-2.2,4.8-4.8c0-2.7-2.2-4.8-4.8-4.8h4.8c3.2,0,5.8-2.6,5.8-5.8
					l0,0c0-3.2-2.6-5.8-5.8-5.8c2.1-7,9.2-27.5,9.2-27.5h-11l-4.6,13.3h-10.2l3.5-13.3h-15.1h-15.1l3.5,13.3h-10.2l-4.6-13.3h-11
					c0,0,7.1,20.5,9.2,27.5c-3.2,0-5.8,2.6-5.8,5.8l0,0c0,3.2,2.6,5.8,5.8,5.8h4.8c-2.7,0-4.8,2.2-4.8,4.8c0,2.7,2.2,4.8,4.8,4.8
					h6.5c-2,15.8-5.9,46.3-7.4,51.4c-2.1,6.9-14.5,7.1-14.5,7.1s0,4.7,0,5.1s9-0.6,9,8.8c0,9.5-22.5,18.6-22.5,25.7s5.5,10,5.5,10
					c-4.2,1.2-5.5,4.8-5.5,4.8v9.8h52.2h0.1h52.2v-9.8C514.6,1644.1,513.3,1640.4,509.1,1639.3z"/>
				<path fill="#939598" d="M509.1,1639.3c0,0,5.5-2.8,5.5-10c0-7.1-22.5-16.3-22.5-25.7s9-8.4,9-8.8c0-0.4,0-5.1,0-5.1
					s-12.4-0.2-14.5-7.1c-1.5-5.1-5.5-35.6-7.4-51.4h6.5c2.7,0,4.8-2.2,4.8-4.8s-2.2-4.8-4.8-4.8h4.8c3.2,0,5.8-2.6,5.8-5.8l0,0
					c0-3.2-2.6-5.8-5.8-5.8c2.1-7,9.2-27.5,9.2-27.5h-11l-4.6,13.3h-10.2l3.5-13.3h-15.1v171.8h0.1h52.2v-9.8
					C514.6,1644.1,513.3,1640.4,509.1,1639.3z"/>
			</g>
			<g>
				<path opacity="0.33" fill="#30302F" d="M1795.6,1641.3c0,0,5.5-2.8,5.5-10s-22.5-16.3-22.5-25.7c0-9.5,9-8.4,9-8.8s0-5.1,0-5.1
					s-12.4-0.2-14.5-7.1c-1.5-5.1-5.5-35.6-7.4-51.4h6.5c2.7,0,4.8-2.2,4.8-4.8c0-2.7-2.2-4.8-4.8-4.8h4.8c3.2,0,5.8-2.6,5.8-5.8
					l0,0c0-3.2-2.6-5.8-5.8-5.8c2.1-7,9.2-27.5,9.2-27.5h-11l-4.6,13.3h-10.2l3.5-13.3h-15.1h-15.1l3.5,13.3h-10.2l-4.6-13.3h-11
					c0,0,7.1,20.5,9.2,27.5c-3.2,0-5.8,2.6-5.8,5.8l0,0c0,3.2,2.6,5.8,5.8,5.8h4.8c-2.7,0-4.8,2.2-4.8,4.8c0,2.7,2.2,4.8,4.8,4.8
					h6.5c-2,15.8-5.9,46.3-7.4,51.4c-2.1,6.9-14.5,7.1-14.5,7.1s0,4.7,0,5.1s9-0.6,9,8.8c0,9.5-22.5,18.6-22.5,25.7s5.5,10,5.5,10
					c-4.2,1.2-5.5,4.8-5.5,4.8v9.8h52.2h0.1h52.2v-9.8C1801,1646.1,1799.8,1642.4,1795.6,1641.3z"/>
				<path fill="#A7A9AC" d="M1790.3,1639.3c0,0,5.5-2.8,5.5-10s-22.5-16.3-22.5-25.7c0-9.5,9-8.4,9-8.8s0-5.1,0-5.1
					s-12.4-0.2-14.5-7.1c-1.5-5.1-5.5-35.6-7.4-51.4h6.5c2.7,0,4.8-2.2,4.8-4.8c0-2.7-2.2-4.8-4.8-4.8h4.8c3.2,0,5.8-2.6,5.8-5.8
					l0,0c0-3.2-2.6-5.8-5.8-5.8c2.1-7,9.2-27.5,9.2-27.5h-11l-4.6,13.3h-10.2l3.5-13.3h-15.1h-15.1l3.5,13.3h-10.2l-4.6-13.3h-11
					c0,0,7.1,20.5,9.2,27.5c-3.2,0-5.8,2.6-5.8,5.8l0,0c0,3.2,2.6,5.8,5.8,5.8h4.8c-2.7,0-4.8,2.2-4.8,4.8c0,2.7,2.2,4.8,4.8,4.8
					h6.5c-2,15.8-5.9,46.3-7.4,51.4c-2.1,6.9-14.5,7.1-14.5,7.1s0,4.7,0,5.1s9-0.6,9,8.8c0,9.5-22.5,18.6-22.5,25.7s5.5,10,5.5,10
					c-4.2,1.2-5.5,4.8-5.5,4.8v9.8h52.2h0.1h52.2v-9.8C1795.7,1644.1,1794.5,1640.4,1790.3,1639.3z"/>
				<path fill="#939598" d="M1790.3,1639.3c0,0,5.5-2.8,5.5-10c0-7.1-22.5-16.3-22.5-25.7s9-8.4,9-8.8c0-0.4,0-5.1,0-5.1
					s-12.4-0.2-14.5-7.1c-1.5-5.1-5.5-35.6-7.4-51.4h6.5c2.7,0,4.8-2.2,4.8-4.8s-2.2-4.8-4.8-4.8h4.8c3.2,0,5.8-2.6,5.8-5.8l0,0
					c0-3.2-2.6-5.8-5.8-5.8c2.1-7,9.2-27.5,9.2-27.5h-11l-4.6,13.3h-10.2l3.5-13.3h-15.1v171.8h0.1h52.2v-9.8
					C1795.7,1644.1,1794.5,1640.4,1790.3,1639.3z"/>
			</g>
			<g>
				<path opacity="0.33" fill="#30302F" d="M1062.8,1636.9c0,0,5.3-2.8,5.3-9.7c0-7-21.9-15.9-21.9-25.1c0-9.2,8.8-8.2,8.8-8.6
					c0-0.4,0-5,0-5s-12.1-0.2-14.1-7c-2-6.8-8.4-59.4-8.4-59.4s-1.2-3.5,1.6-6.1v-0.2h12.1c2.5,0,4.5-2,4.5-4.5v-1.8
					c0-2.5-2-4.5-4.5-4.5h-2.8c1.8,0,3.3-1.5,3.3-3.3c0-1.8-1.5-3.3-3.3-3.3h-9.3v-1.6l0.3-12.4c0,0,12.7-33.1,13.5-38.5
					c0.8-5.4-1.4-9.9-8.5-12c-3.7-1.1-9.1-1.8-13.7-2.2h2.6h0.1c1.3,0,2.3-1,2.3-2.3v-1.2c0-1.3-1-2.3-2.3-2.3h-0.1h-3.3l2.2-0.6
					l-4-14.6l12.4,2.5v0l0.1,0v-12.9l-0.1,0v0l-12.4,2.5l4-14.6l-8.3-4.3c1.8-0.7,3.1-2.5,3.1-4.6c0-2.7-2.2-4.9-4.9-4.9
					c-2.7,0-4.9,2.2-4.9,4.9c0,2.1,1.3,3.9,3.2,4.6l-8.3,4.2l4,14.6l-12.4-2.5v0l-0.1,0v12.9l0.1,0v0l12.4-2.5l-4,14.6l2.2,0.6h-3.3
					h-0.1c-1.3,0-2.3,1-2.3,2.3v1.2c0,1.3,1,2.3,2.3,2.3h0.1h2.6c-4.6,0.4-10,1.1-13.7,2.2c-7.1,2-9.3,6.6-8.5,12
					c0.8,5.4,13.5,38.5,13.5,38.5l0.3,12.4v1.6H991c-1.8,0-3.3,1.5-3.3,3.3c0,1.8,1.5,3.3,3.3,3.3h-2.8c-2.5,0-4.5,2-4.5,4.5v1.8
					c0,2.5,2,4.5,4.5,4.5h12v0.2c2.9,2.7,1.6,6.1,1.6,6.1s-6.4,52.7-8.4,59.4s-14.1,7-14.1,7s0,4.6,0,5c0,0.4,8.8-0.6,8.8,8.6
					c0,9.2-21.9,18.1-21.9,25.1c0,7,5.3,9.7,5.3,9.7c-4.1,1.1-5.3,4.7-5.3,4.7v9.5h50.9h0.1h50.9v-9.5
					C1068.1,1641.6,1066.9,1638,1062.8,1636.9z"/>
				<path fill="#A7A9AC" d="M1056.6,1632.9c0,0,5.3-2.8,5.3-9.7c0-7-21.9-15.9-21.9-25.1c0-9.2,8.8-8.2,8.8-8.6c0-0.4,0-5,0-5
					s-12.1-0.2-14.1-7c-2-6.8-8.4-59.4-8.4-59.4s-1.2-3.5,1.6-6.1v-0.2h12.1c2.5,0,4.5-2,4.5-4.5v-1.8c0-2.5-2-4.5-4.5-4.5h-2.8
					c1.8,0,3.3-1.5,3.3-3.3c0-1.8-1.5-3.3-3.3-3.3h-9.3v-1.6l0.3-12.4c0,0,12.7-33.1,13.5-38.5c0.8-5.4-1.4-9.9-8.5-12
					c-3.7-1.1-9.1-1.8-13.7-2.2h2.6h0.1c1.3,0,2.3-1,2.3-2.3v-1.2c0-1.3-1-2.3-2.3-2.3h-0.1h-3.3l2.2-0.6l-4-14.6l12.4,2.5v0l0.1,0
					v-12.9l-0.1,0v0l-12.4,2.5l4-14.6l-8.3-4.3c1.8-0.7,3.1-2.5,3.1-4.6c0-2.7-2.2-4.9-4.9-4.9c-2.7,0-4.9,2.2-4.9,4.9
					c0,2.1,1.3,3.9,3.2,4.6l-8.3,4.2l4,14.6l-12.4-2.5v0l-0.1,0v12.9l0.1,0v0l12.4-2.5l-4,14.6l2.2,0.6h-3.3h-0.1
					c-1.3,0-2.3,1-2.3,2.3v1.2c0,1.3,1,2.3,2.3,2.3h0.1h2.6c-4.6,0.4-10,1.1-13.7,2.2c-7.1,2-9.3,6.6-8.5,12
					c0.8,5.4,13.5,38.5,13.5,38.5l0.3,12.4v1.6h-9.2c-1.8,0-3.3,1.5-3.3,3.3c0,1.8,1.5,3.3,3.3,3.3H982c-2.5,0-4.5,2-4.5,4.5v1.8
					c0,2.5,2,4.5,4.5,4.5h12v0.2c2.9,2.7,1.6,6.1,1.6,6.1s-6.4,52.7-8.4,59.4s-14.1,7-14.1,7s0,4.6,0,5c0,0.4,8.8-0.6,8.8,8.6
					c0,9.2-21.9,18.1-21.9,25.1c0,7,5.3,9.7,5.3,9.7c-4.1,1.1-5.3,4.7-5.3,4.7v9.5h50.9h0.1h50.9v-9.5
					C1061.9,1637.6,1060.7,1634,1056.6,1632.9z"/>
				<path fill="#939598" d="M1056.6,1632.9c0,0,5.3-2.8,5.3-9.7c0-7-21.9-15.9-21.9-25.1c0-9.2,8.8-8.2,8.8-8.6c0-0.4,0-5,0-5
					s-12.1-0.2-14.1-7s-8.4-59.4-8.4-59.4s-1.2-3.5,1.6-6.1v-0.2h12.1c2.5,0,4.5-2,4.5-4.5v-1.8c0-2.5-2-4.5-4.5-4.5h-2.8
					c1.8,0,3.3-1.5,3.3-3.3c0-1.8-1.5-3.3-3.3-3.3h-9.3v-1.6l0.3-12.4c0,0,12.7-33.1,13.5-38.5s-1.4-9.9-8.5-12
					c-3.7-1.1-9.1-1.8-13.7-2.2h2.6h0.1c1.3,0,2.3-1,2.3-2.3v-1.2c0-1.3-1-2.3-2.3-2.3h-0.1h-3.3l2.2-0.6l-4-14.6l12.4,2.5v0l0.1,0
					v-12.9l-0.1,0v0l-12.4,2.5l4-14.6l-8.3-4.3c1.8-0.7,3.1-2.5,3.1-4.6c0-2.7-2.2-4.9-4.9-4.9v276.6h0.1h50.9v-9.5
					C1061.9,1637.6,1060.7,1634,1056.6,1632.9z"/>
			</g>
			<g>
				<path opacity="0.33" fill="#30302F" d="M1240.5,1638c0,0,4.9-2.6,4.9-9c0-6.4-20.2-14.7-20.2-23.2s8.1-7.6,8.1-7.9
					c0-0.4,0-4.6,0-4.6s-11.2-0.2-13.1-6.4c-1.9-6.2-7.8-54.9-7.8-54.9s-1.2-11.3,1.5-13.8v-0.1h11.2c2.3,0,4.1-1.9,4.1-4.1v-1.6
					c0-2.3-1.9-4.1-4.1-4.1h-2.6c1.7,0,3.1-1.4,3.1-3.1c0-1.7-1.4-3.1-3.1-3.1h-1c0,0-2.6-15.2-2.1-27.8c0.5-12.5,15.9-30.5,15-32.9
					c-0.9-2.4-9.5,1.7-9.5,1.7s-2.2-4.6-2.7-4.7c-0.2-0.1-2.9,0.6-6.5,1.5c-2.9-5.4-8.2-9.3-14.5-10.3c2.3-1.1,3.9-3.5,3.9-6.2
					c0-3.8-3.1-6.9-6.9-6.9c-3.8,0-6.9,3.1-6.9,6.9c0,2.7,1.6,5.1,3.9,6.2c-6.3,0.9-11.6,4.9-14.5,10.3c-3.6-0.9-6.4-1.6-6.5-1.5
					c-0.5,0.2-2.7,4.7-2.7,4.7s-8.5-4.1-9.5-1.7c-0.9,2.4,14.5,20.3,15,32.9c0.5,12.5-2.1,27.8-2.1,27.8h-1c-1.7,0-3.1,1.4-3.1,3.1
					c0,1.7,1.4,3.1,3.1,3.1h-2.6c-2.3,0-4.1,1.9-4.1,4.1v1.6c0,2.3,1.9,4.1,4.1,4.1h11.1v0.1c2.6,2.5,1.6,13.8,1.6,13.8
					s-5.9,48.6-7.8,54.9c-1.9,6.2-13.1,6.4-13.1,6.4s0,4.3,0,4.6c0,0.4,8.1-0.6,8.1,7.9s-20.2,16.7-20.2,23.2c0,6.4,4.9,9,4.9,9
					c-3.8,1-4.9,4.4-4.9,4.4v8.8h47h0.1h47v-8.8C1245.4,1642.3,1244.2,1639,1240.5,1638z"/>
				<path fill="#A7A9AC" d="M1233.5,1632.7c0,0,4.9-2.6,4.9-9c0-6.4-20.2-14.7-20.2-23.2s8.1-7.6,8.1-7.9c0-0.4,0-4.6,0-4.6
					s-11.2-0.2-13.1-6.4c-1.9-6.2-7.8-54.9-7.8-54.9s-1.2-11.3,1.5-13.8v-0.1h11.2c2.3,0,4.1-1.9,4.1-4.1v-1.6
					c0-2.3-1.9-4.1-4.1-4.1h-2.6c1.7,0,3.1-1.4,3.1-3.1c0-1.7-1.4-3.1-3.1-3.1h-1c0,0-2.6-15.2-2.1-27.8c0.5-12.5,15.9-30.5,15-32.9
					c-0.9-2.4-9.5,1.7-9.5,1.7s-2.2-4.6-2.7-4.7c-0.2-0.1-2.9,0.6-6.5,1.5c-2.9-5.4-8.2-9.3-14.5-10.3c2.3-1.1,3.9-3.5,3.9-6.2
					c0-3.8-3.1-6.9-6.9-6.9c-3.8,0-6.9,3.1-6.9,6.9c0,2.7,1.6,5.1,3.9,6.2c-6.3,0.9-11.6,4.9-14.5,10.3c-3.6-0.9-6.4-1.6-6.5-1.5
					c-0.5,0.2-2.7,4.7-2.7,4.7s-8.5-4.1-9.5-1.7c-0.9,2.4,14.5,20.3,15,32.9c0.5,12.5-2.1,27.8-2.1,27.8h-1c-1.7,0-3.1,1.4-3.1,3.1
					c0,1.7,1.4,3.1,3.1,3.1h-2.6c-2.3,0-4.1,1.9-4.1,4.1v1.6c0,2.3,1.9,4.1,4.1,4.1h11.1v0.1c2.6,2.5,1.6,13.8,1.6,13.8
					s-5.9,48.6-7.8,54.9c-1.9,6.2-13.1,6.4-13.1,6.4s0,4.3,0,4.6c0,0.4,8.1-0.6,8.1,7.9s-20.2,16.7-20.2,23.2c0,6.4,4.9,9,4.9,9
					c-3.8,1-4.9,4.4-4.9,4.4v8.8h47h0.1h47v-8.8C1238.4,1637.1,1237.2,1633.7,1233.5,1632.7z"/>
				<path fill="#939598" d="M1233.5,1632.7c0,0,4.9-2.6,4.9-9c0-6.4-20.2-14.7-20.2-23.2c0-8.5,8.1-7.6,8.1-7.9c0-0.4,0-4.6,0-4.6
					s-11.2-0.2-13.1-6.4s-7.8-54.9-7.8-54.9s-1.2-11.3,1.5-13.8v-0.1h11.2c2.3,0,4.1-1.9,4.1-4.1v-1.6c0-2.3-1.9-4.1-4.1-4.1h-2.6
					c1.7,0,3.1-1.4,3.1-3.1s-1.4-3.1-3.1-3.1h-1c0,0-2.6-15.2-2.1-27.8c0.5-12.5,15.9-30.5,15-32.9c-0.9-2.4-9.5,1.7-9.5,1.7
					s-2.2-4.6-2.7-4.7c-0.2-0.1-2.9,0.6-6.5,1.5c-2.9-5.4-8.2-9.3-14.5-10.3c2.3-1.1,3.9-3.5,3.9-6.2c0-3.8-3.1-6.9-6.9-6.9
					c0,0,0,0,0,0v234.6h0h47v-8.8C1238.4,1637.1,1237.2,1633.7,1233.5,1632.7z"/>
			</g>
			<g>
				<path opacity="0.33" fill="#30302F" d="M1421.3,1636.5c0,0,4.4-3.2,4.4-11.3c0-8.1-18.2-18.5-18.2-29.3c0-10.7,7.3-9.6,7.3-10
					c0-0.5,0-5.9,0-5.9s-10-0.2-11.7-8.1c-0.7-3.1-1.9-14.8-3.2-27.7h7.4c2.2,0,4.1-1.8,4.1-4.1v-1.6c0-2.2-1.8-4.1-4.1-4.1h-3.6
					c1.9,0,3.4-1.5,3.4-3.4l0,0c0-1.9-1.5-3.4-3.4-3.4h-5.3c-0.3-3-0.5-5.9-0.8-8.6c5.2-4.2,14.7-13.4,14.7-23.3
					c0-13.6-7.6-25.3-13.6-33.7c-6-8.4-6.4-16.5-6.4-16.5s-0.2,0-0.5,0c3.3-1.3,5.4-3.5,5.4-5.9c0-4.1-6.1-7.3-13.5-7.3
					s-13.5,3.3-13.5,7.3c0,2.4,2.1,4.5,5.4,5.9c-0.3,0-0.5,0-0.5,0s-0.5,8.1-6.4,16.5c-6,8.4-13.6,20.1-13.6,33.7
					c0,9.8,9.3,18.9,14.5,23.2c-0.2,2.7-0.5,5.7-0.8,8.8h-5.1c-1.9,0-3.4,1.5-3.4,3.4l0,0c0,1.9,1.5,3.4,3.4,3.4h-3.6
					c-2.2,0-4.1,1.8-4.1,4.1v1.6c0,2.2,1.8,4.1,4.1,4.1h7.2c-1.3,12.9-2.5,24.6-3.2,27.7c-1.7,7.9-11.7,8.1-11.7,8.1s0,5.4,0,5.9
					c0,0.5,7.3-0.7,7.3,10c0,10.7-18.2,21.1-18.2,29.3c0,8.1,4.4,11.3,4.4,11.3c-3.4,1.3-4.4,5.5-4.4,5.5v11.1h42.2h0.1h42.2V1642
					C1425.7,1642,1424.7,1637.9,1421.3,1636.5z"/>
				<path fill="#FFFFFF" d="M1414.5,1634.5c0,0,4.4-3.2,4.4-11.3c0-8.1-18.2-18.5-18.2-29.3c0-10.7,7.3-9.6,7.3-10
					c0-0.5,0-5.9,0-5.9s-10-0.2-11.7-8.1c-0.7-3.1-1.9-14.8-3.2-27.7h7.4c2.2,0,4.1-1.8,4.1-4.1v-1.6c0-2.2-1.8-4.1-4.1-4.1h-3.6
					c1.9,0,3.4-1.5,3.4-3.4l0,0c0-1.9-1.5-3.4-3.4-3.4h-5.3c-0.3-3-0.5-5.9-0.8-8.6c5.2-4.2,14.7-13.4,14.7-23.3
					c0-13.6-7.6-25.3-13.6-33.7c-6-8.4-6.4-16.5-6.4-16.5s-0.2,0-0.5,0c3.3-1.3,5.4-3.5,5.4-5.9c0-4.1-6.1-7.3-13.5-7.3
					c-7.5,0-13.5,3.3-13.5,7.3c0,2.4,2.1,4.5,5.4,5.9c-0.3,0-0.5,0-0.5,0s-0.5,8.1-6.4,16.5c-6,8.4-13.6,20.1-13.6,33.7
					c0,9.8,9.3,18.9,14.5,23.2c-0.2,2.7-0.5,5.7-0.8,8.8h-5.1c-1.9,0-3.4,1.5-3.4,3.4l0,0c0,1.9,1.5,3.4,3.4,3.4h-3.6
					c-2.2,0-4.1,1.8-4.1,4.1v1.6c0,2.2,1.8,4.1,4.1,4.1h7.2c-1.3,12.9-2.5,24.6-3.2,27.7c-1.7,7.9-11.7,8.1-11.7,8.1s0,5.4,0,5.9
					c0,0.5,7.3-0.7,7.3,10c0,10.7-18.2,21.1-18.2,29.3c0,8.1,4.4,11.3,4.4,11.3c-3.4,1.3-4.4,5.5-4.4,5.5v11.1h42.2h0.1h42.2V1640
					C1418.9,1640,1417.9,1635.9,1414.5,1634.5z"/>
				<path fill="#A7A9AC" d="M1414.5,1634.5c0,0,4.4-3.2,4.4-11.3c0-8.1-18.2-18.5-18.2-29.3c0-10.7,7.3-9.6,7.3-10
					c0-0.5,0-5.9,0-5.9s-10-0.2-11.7-8.1c-0.7-3.1-1.9-14.8-3.2-27.7h7.4c2.2,0,4.1-1.8,4.1-4.1v-1.6c0-2.2-1.8-4.1-4.1-4.1h-3.6
					c1.9,0,3.4-1.5,3.4-3.4l0,0c0-1.9-1.5-3.4-3.4-3.4h-5.3c-0.3-3-0.5-5.9-0.8-8.6c5.2-4.2,14.7-13.4,14.7-23.3
					c0-13.6-7.6-25.3-13.6-33.7c-6-8.4-6.4-16.5-6.4-16.5s-0.2,0-0.5,0c3.3-1.3,5.4-3.5,5.4-5.9c0-4.1-6.1-7.3-13.5-7.3
					c-7.5,0-13.5,3.3-13.5,7.3c0,2.4,2.1,4.5,5.4,5.9c-0.3,0-0.5,0-0.5,0s-0.5,8.1-6.4,16.5c-6,8.4-13.6,20.1-13.6,33.7
					c0,9.8,9.3,18.9,14.5,23.2c-0.2,2.7-0.5,5.7-0.8,8.8h-5.1c-1.9,0-3.4,1.5-3.4,3.4l0,0c0,1.9,1.5,3.4,3.4,3.4h-3.6
					c-2.2,0-4.1,1.8-4.1,4.1v1.6c0,2.2,1.8,4.1,4.1,4.1h7.2c-1.3,12.9-2.5,24.6-3.2,27.7c-1.7,7.9-11.7,8.1-11.7,8.1s0,5.4,0,5.9
					c0,0.5,7.3-0.7,7.3,10c0,10.7-18.2,21.1-18.2,29.3c0,8.1,4.4,11.3,4.4,11.3c-3.4,1.3-4.4,5.5-4.4,5.5v11.1h42.2h0.1h42.2V1640
					C1418.9,1640,1417.9,1635.9,1414.5,1634.5z"/>
				<path fill="#939598" d="M1414.5,1634.5c0,0,4.4-3.2,4.4-11.3c0-8.1-18.2-18.5-18.2-29.3s7.3-9.6,7.3-10c0-0.5,0-5.9,0-5.9
					s-10-0.2-11.7-8.1c-0.7-3.1-1.9-14.8-3.2-27.7h7.4c2.2,0,4.1-1.8,4.1-4.1v-1.6c0-2.2-1.8-4.1-4.1-4.1h-3.6
					c1.9,0,3.4-1.5,3.4-3.4s-1.5-3.4-3.4-3.4h-5.3c-0.3-3-0.5-5.9-0.8-8.6c5.2-4.2,14.7-13.4,14.7-23.3c0-13.6-7.6-25.3-13.6-33.7
					c-6-8.4-6.4-16.5-6.4-16.5s-0.2,0-0.5,0c3.3-1.3,5.4-3.5,5.4-5.9c0-4.1-6.1-7.3-13.5-7.3c0,0-0.1,0-0.1,0v220.6h0h42.2V1640
					C1418.9,1640,1417.9,1635.9,1414.5,1634.5z"/>
			</g>
			<g>
				<g>
					<path opacity="0.33" fill="#30302F" d="M1781,534.9c-0.7-1.1-1.8-2-3.8-2.3c0.1,0,0.2,0,0.2-0.1c0.1,0,0.2,0,0.2-0.1
						c0.2-0.1,0.3-0.2,0.5-0.3s0.3-0.3,0.5-0.5s0.3-0.4,0.5-0.7c0.6-1.1,1-2.9,1-5.8c0-1.1-0.3-2-0.7-2.9c-0.4-0.8-1.1-1.5-1.9-2.2
						c-0.3-0.3-0.7-0.5-1.1-0.8c-0.6-0.4-1.3-0.9-2-1.3c-0.2-0.1-0.5-0.3-0.7-0.4c-2.6-1.5-5.4-3-7.4-5.6c-1.6-2-2.7-4.6-2.7-8.3
						c0.4-0.2,2.5-1.7,3.9-2.8c0.2-0.2,0.4-0.3,0.6-0.4c0.6-0.4,0.9-1.1,0.9-1.8l0,0c0-1.1-0.8-2-1.8-2.2c-0.1,0-0.3,0-0.5,0
						c-1.5,0-3.6-0.3-5.4-1.4c-0.3-0.2-0.5-0.3-0.8-0.6c-0.4-0.3-0.7-0.7-1.1-1.1c-0.2-0.3-0.5-0.6-0.7-1c-1.1-1.7-1.8-4.1-1.8-7.5
						c0-5.4,0.9-10,1.9-13.7c0.3-0.9,0.5-1.8,0.8-2.6c0.2-0.6,0.4-1.1,0.6-1.6c0.6-1.6,1.3-2.9,1.7-3.8h2.5c1,0,1.9-0.4,2.5-0.9
						c0.2-0.1,0.3-0.3,0.5-0.5c0.4-0.5,0.7-1.2,0.8-1.9c0-0.3,0-0.5,0-0.8c-0.2-1.8-1.8-3.3-3.7-3.3l0,0h-1.8
						c-0.3,0-0.8-0.1-1.5-0.3c-0.3-0.1-0.7-0.2-1.1-0.4c-0.2-0.1-0.4-0.2-0.6-0.3c-0.4-0.2-0.9-0.4-1.4-0.7c-1.7-0.9-3.6-2-5.4-3.5
						c3.2-1.1,6-3,8.2-5.3c2.6-2.8,4.5-6.3,5.3-10.2c0.1-0.6,0.2-1.1,0.3-1.7c0.1-1.1,0.2-2.3,0.1-3.5c-0.1-2.7-0.7-5.3-1.8-7.6
						c-0.5-1.2-1.2-2.3-1.9-3.3c-0.7-1.1-1.5-2-2.4-2.9c0,0-0.1-0.1-0.1-0.1c-0.8-0.8-1.6-1.4-2.5-2.1c-1.5-1.1-3.1-1.9-4.8-2.6
						c-2-0.8-4.2-1.3-6.5-1.4c-0.1,0-0.1,0-0.2,0c-0.3,0-0.6,0-0.8,0l0,0c-11.6,0-21,9.4-21,21c0,9.2,5.9,16.9,14,19.8
						c-4.1,3.4-8.8,5.2-9.9,5.2h-1.3c-1.9,0-3.6,1.4-3.8,3.3c-0.2,2.2,1.5,4,3.7,4h2.2c1.6,3,5,10.8,5,21.6
						c0,10.1-6.2,11.5-9.7,11.6c-1.3,0-2.3,1-2.3,2.3l0,0c0,0.7,0.3,1.4,0.9,1.8c1.4,1.1,4,3,4.5,3.3c0,14.5-16.4,12.6-16.4,21.4
						c0,5.8,1.8,7.1,3,7.3c-4.9,0.7-4.8,5.8-4.8,5.8v6.5h35.9h35.9h0v-6.5C1782,538.3,1782,536.5,1781,534.9z"/>
					<g>
						<path fill="#424342" d="M1772.7,528.8c1.2-0.2,3-1.5,3-7.3c0-8.8-16.4-6.9-16.4-21.4c0.5-0.2,3.1-2.2,4.5-3.3
							c0.6-0.4,0.9-1.1,0.9-1.8l0,0c0-1.3-1-2.3-2.3-2.3c-3.5,0-9.7-1.4-9.7-11.6c0-10.8,3.4-18.5,5-21.6h2.5c1.9,0,3.6-1.4,3.8-3.3
							c0.2-2.2-1.5-4-3.7-4h-1.8c-1.2,0-5.8-1.8-9.9-5.2c8.4-3,14.4-11.2,14-20.7c-0.5-10.8-9.2-19.6-20-20.1
							c-12.1-0.6-22,9.1-22,21c0,9.2,5.9,16.9,14,19.8c-4.1,3.4-8.8,5.2-9.9,5.2h-1.3c-1.9,0-3.6,1.4-3.8,3.3c-0.2,2.2,1.5,4,3.7,4
							h2.2c1.6,3,5,10.8,5,21.6c0,10.1-6.2,11.5-9.7,11.6c-1.3,0-2.3,1-2.3,2.3l0,0c0,0.7,0.3,1.4,0.9,1.8c1.4,1.1,4,3,4.5,3.3
							c0,14.5-16.4,12.6-16.4,21.4c0,5.8,1.8,7.1,3,7.3c-4.9,0.7-4.8,5.8-4.8,5.8v6.5h71.9v-6.5
							C1777.5,534.6,1777.6,529.5,1772.7,528.8z"/>
						<path fill="#2B2B2B" d="M1777.5,534.6c0,0,0-5.1-4.8-5.8c1.2-0.2,3-1.5,3-7.3c0-8.8-16.4-6.9-16.4-21.4
							c0.5-0.2,3.1-2.2,4.5-3.3c0.6-0.4,0.9-1.1,0.9-1.8c0-1.3-1-2.3-2.3-2.3c-3.5,0-9.7-1.4-9.7-11.6c0-10.8,3.4-18.5,5-21.6h2.5
							c1.9,0,3.6-1.4,3.8-3.3c0.2-2.2-1.5-4-3.7-4h-1.8c-1.2,0-5.8-1.8-9.9-5.2c8.4-3,14.4-11.2,14-20.7c-0.5-10.8-9.2-19.6-20-20.1
							c-0.3,0-0.7,0-1,0v134.9h35.9V534.6z"/>
					</g>
				</g>
				<g>
					<path opacity="0.33" fill="#30302F" d="M1598,534.9c-0.7-1.1-1.8-2-3.8-2.3c0.1,0,0.2,0,0.2-0.1c0.1,0,0.2,0,0.2-0.1
						c0.2-0.1,0.3-0.2,0.5-0.3s0.3-0.3,0.5-0.5s0.3-0.4,0.5-0.7c0.6-1.1,1-2.9,1-5.8c0-1.1-0.3-2-0.7-2.9c-0.4-0.8-1.1-1.5-1.9-2.2
						c-0.3-0.3-0.7-0.5-1.1-0.8c-0.6-0.4-1.3-0.9-2-1.3c-0.2-0.1-0.5-0.3-0.7-0.4c-2.6-1.5-5.4-3-7.4-5.6c-1.6-2-2.7-4.6-2.7-8.3
						c0.4-0.2,2.5-1.7,3.9-2.8c0.2-0.2,0.4-0.3,0.6-0.4c0.6-0.4,0.9-1.1,0.9-1.8l0,0c0-1.1-0.8-2-1.8-2.2c-0.1,0-0.3,0-0.5,0
						c-1.5,0-3.6-0.3-5.4-1.4c-0.3-0.2-0.5-0.3-0.8-0.6c-0.4-0.3-0.7-0.7-1.1-1.1c-0.2-0.3-0.5-0.6-0.7-1c-1.1-1.7-1.8-4.1-1.8-7.5
						c0-5.4,0.9-10,1.9-13.7c0.3-0.9,0.5-1.8,0.8-2.6c0.2-0.6,0.4-1.1,0.6-1.6c0.6-1.6,1.3-2.9,1.7-3.8h2.5c1,0,1.9-0.4,2.5-0.9
						c0.2-0.1,0.3-0.3,0.5-0.5c0.4-0.5,0.7-1.2,0.8-1.9c0-0.3,0-0.5,0-0.8c-0.2-1.8-1.8-3.3-3.7-3.3l0,0h-1.8
						c-0.3,0-0.8-0.1-1.5-0.3c-0.3-0.1-0.7-0.2-1.1-0.4c-0.2-0.1-0.4-0.2-0.6-0.3c-0.4-0.2-0.9-0.4-1.4-0.7c-1.7-0.9-3.6-2-5.4-3.5
						c3.2-1.1,6-3,8.2-5.3c2.6-2.8,4.5-6.3,5.3-10.2c0.1-0.6,0.2-1.1,0.3-1.7c0.1-1.1,0.2-2.3,0.1-3.5c-0.1-2.7-0.7-5.3-1.8-7.6
						c-0.5-1.2-1.2-2.3-1.9-3.3c-0.7-1.1-1.5-2-2.4-2.9c0,0-0.1-0.1-0.1-0.1c-0.8-0.8-1.6-1.4-2.5-2.1c-1.5-1.1-3.1-1.9-4.8-2.6
						c-2-0.8-4.2-1.3-6.5-1.4c-0.1,0-0.1,0-0.2,0c-0.3,0-0.6,0-0.8,0l0,0c-11.6,0-21,9.4-21,21c0,9.2,5.9,16.9,14,19.8
						c-4.1,3.4-8.8,5.2-9.9,5.2h-1.3c-1.9,0-3.6,1.4-3.8,3.3c-0.2,2.2,1.5,4,3.7,4h2.2c1.6,3,5,10.8,5,21.6
						c0,10.1-6.2,11.5-9.7,11.6c-1.3,0-2.3,1-2.3,2.3l0,0c0,0.7,0.3,1.4,0.9,1.8c1.4,1.1,4,3,4.5,3.3c0,14.5-16.4,12.6-16.4,21.4
						c0,5.8,1.8,7.1,3,7.3c-4.9,0.7-4.8,5.8-4.8,5.8v6.5h35.9h35.9h0v-6.5C1599,538.3,1599,536.5,1598,534.9z"/>
					<g>
						<path fill="#424342" d="M1589.7,528.8c1.2-0.2,3-1.5,3-7.3c0-8.8-16.4-6.9-16.4-21.4c0.5-0.2,3.1-2.2,4.5-3.3
							c0.6-0.4,0.9-1.1,0.9-1.8l0,0c0-1.3-1-2.3-2.3-2.3c-3.5,0-9.7-1.4-9.7-11.6c0-10.8,3.4-18.5,5-21.6h2.5c1.9,0,3.6-1.4,3.8-3.3
							c0.2-2.2-1.5-4-3.7-4h-1.8c-1.2,0-5.8-1.8-9.9-5.2c8.4-3,14.4-11.2,14-20.7c-0.5-10.8-9.2-19.6-20-20.1
							c-12.1-0.6-22,9.1-22,21c0,9.2,5.9,16.9,14,19.8c-4.1,3.4-8.8,5.2-9.9,5.2h-1.3c-1.9,0-3.6,1.4-3.8,3.3c-0.2,2.2,1.5,4,3.7,4
							h2.2c1.6,3,5,10.8,5,21.6c0,10.1-6.2,11.5-9.7,11.6c-1.3,0-2.3,1-2.3,2.3l0,0c0,0.7,0.3,1.4,0.9,1.8c1.4,1.1,4,3,4.5,3.3
							c0,14.5-16.4,12.6-16.4,21.4c0,5.8,1.8,7.1,3,7.3c-4.9,0.7-4.8,5.8-4.8,5.8v6.5h71.9v-6.5
							C1594.5,534.6,1594.6,529.5,1589.7,528.8z"/>
						<path fill="#2B2B2B" d="M1594.5,534.6c0,0,0-5.1-4.8-5.8c1.2-0.2,3-1.5,3-7.3c0-8.8-16.4-6.9-16.4-21.4
							c0.5-0.2,3.1-2.2,4.5-3.3c0.6-0.4,0.9-1.1,0.9-1.8c0-1.3-1-2.3-2.3-2.3c-3.5,0-9.7-1.4-9.7-11.6c0-10.8,3.4-18.5,5-21.6h2.5
							c1.9,0,3.6-1.4,3.8-3.3c0.2-2.2-1.5-4-3.7-4h-1.8c-1.2,0-5.8-1.8-9.9-5.2c8.4-3,14.4-11.2,14-20.7c-0.5-10.8-9.2-19.6-20-20.1
							c-0.3,0-0.7,0-1,0v134.9h35.9V534.6z"/>
					</g>
				</g>
				<g>
					<path opacity="0.33" fill="#30302F" d="M1415,534.9c-0.7-1.1-1.8-2-3.8-2.3c0.1,0,0.2,0,0.2-0.1c0.1,0,0.2,0,0.2-0.1
						c0.2-0.1,0.3-0.2,0.5-0.3s0.3-0.3,0.5-0.5s0.3-0.4,0.5-0.7c0.6-1.1,1-2.9,1-5.8c0-1.1-0.3-2-0.7-2.9c-0.4-0.8-1.1-1.5-1.9-2.2
						c-0.3-0.3-0.7-0.5-1.1-0.8c-0.6-0.4-1.3-0.9-2-1.3c-0.2-0.1-0.5-0.3-0.7-0.4c-2.6-1.5-5.4-3-7.4-5.6c-1.6-2-2.7-4.6-2.7-8.3
						c0.4-0.2,2.5-1.7,3.9-2.8c0.2-0.2,0.4-0.3,0.6-0.4c0.6-0.4,0.9-1.1,0.9-1.8l0,0c0-1.1-0.8-2-1.8-2.2c-0.1,0-0.3,0-0.5,0
						c-1.5,0-3.6-0.3-5.4-1.4c-0.3-0.2-0.5-0.3-0.8-0.6c-0.4-0.3-0.7-0.7-1.1-1.1c-0.2-0.3-0.5-0.6-0.7-1c-1.1-1.7-1.8-4.1-1.8-7.5
						c0-5.4,0.9-10,1.9-13.7c0.3-0.9,0.5-1.8,0.8-2.6c0.2-0.6,0.4-1.1,0.6-1.6c0.6-1.6,1.3-2.9,1.7-3.8h2.5c1,0,1.9-0.4,2.5-0.9
						c0.2-0.1,0.3-0.3,0.5-0.5c0.4-0.5,0.7-1.2,0.8-1.9c0-0.3,0-0.5,0-0.8c-0.2-1.8-1.8-3.3-3.7-3.3l0,0h-1.8
						c-0.3,0-0.8-0.1-1.5-0.3c-0.3-0.1-0.7-0.2-1.1-0.4c-0.2-0.1-0.4-0.2-0.6-0.3c-0.4-0.2-0.9-0.4-1.4-0.7c-1.7-0.9-3.6-2-5.4-3.5
						c3.2-1.1,6-3,8.2-5.3c2.6-2.8,4.5-6.3,5.3-10.2c0.1-0.6,0.2-1.1,0.3-1.7c0.1-1.1,0.2-2.3,0.1-3.5c-0.1-2.7-0.7-5.3-1.8-7.6
						c-0.5-1.2-1.2-2.3-1.9-3.3c-0.7-1.1-1.5-2-2.4-2.9c0,0-0.1-0.1-0.1-0.1c-0.8-0.8-1.6-1.4-2.5-2.1c-1.5-1.1-3.1-1.9-4.8-2.6
						c-2-0.8-4.2-1.3-6.5-1.4c-0.1,0-0.1,0-0.2,0c-0.3,0-0.6,0-0.8,0l0,0c-11.6,0-21,9.4-21,21c0,9.2,5.9,16.9,14,19.8
						c-4.1,3.4-8.8,5.2-9.9,5.2h-1.3c-1.9,0-3.6,1.4-3.8,3.3c-0.2,2.2,1.5,4,3.7,4h2.2c1.6,3,5,10.8,5,21.6
						c0,10.1-6.2,11.5-9.7,11.6c-1.3,0-2.3,1-2.3,2.3l0,0c0,0.7,0.3,1.4,0.9,1.8c1.4,1.1,4,3,4.5,3.3c0,14.5-16.4,12.6-16.4,21.4
						c0,5.8,1.8,7.1,3,7.3c-4.9,0.7-4.8,5.8-4.8,5.8v6.5h35.9h35.9h0v-6.5C1416,538.3,1416,536.5,1415,534.9z"/>
					<g>
						<path fill="#424342" d="M1406.7,528.8c1.2-0.2,3-1.5,3-7.3c0-8.8-16.4-6.9-16.4-21.4c0.5-0.2,3.1-2.2,4.5-3.3
							c0.6-0.4,0.9-1.1,0.9-1.8l0,0c0-1.3-1-2.3-2.3-2.3c-3.5,0-9.7-1.4-9.7-11.6c0-10.8,3.4-18.5,5-21.6h2.5c1.9,0,3.6-1.4,3.8-3.3
							c0.2-2.2-1.5-4-3.7-4h-1.8c-1.2,0-5.8-1.8-9.9-5.2c8.4-3,14.4-11.2,14-20.7c-0.5-10.8-9.2-19.6-20-20.1
							c-12.1-0.6-22,9.1-22,21c0,9.2,5.9,16.9,14,19.8c-4.1,3.4-8.8,5.2-9.9,5.2h-1.3c-1.9,0-3.6,1.4-3.8,3.3c-0.2,2.2,1.5,4,3.7,4
							h2.2c1.6,3,5,10.8,5,21.6c0,10.1-6.2,11.5-9.7,11.6c-1.3,0-2.3,1-2.3,2.3l0,0c0,0.7,0.3,1.4,0.9,1.8c1.4,1.1,4,3,4.5,3.3
							c0,14.5-16.4,12.6-16.4,21.4c0,5.8,1.8,7.1,3,7.3c-4.9,0.7-4.8,5.8-4.8,5.8v6.5h71.9v-6.5
							C1411.5,534.6,1411.6,529.5,1406.7,528.8z"/>
						<path fill="#2B2B2B" d="M1411.5,534.6c0,0,0-5.1-4.8-5.8c1.2-0.2,3-1.5,3-7.3c0-8.8-16.4-6.9-16.4-21.4
							c0.5-0.2,3.1-2.2,4.5-3.3c0.6-0.4,0.9-1.1,0.9-1.8c0-1.3-1-2.3-2.3-2.3c-3.5,0-9.7-1.4-9.7-11.6c0-10.8,3.4-18.5,5-21.6h2.5
							c1.9,0,3.6-1.4,3.8-3.3c0.2-2.2-1.5-4-3.7-4h-1.8c-1.2,0-5.8-1.8-9.9-5.2c8.4-3,14.4-11.2,14-20.7c-0.5-10.8-9.2-19.6-20-20.1
							c-0.3,0-0.7,0-1,0v134.9h35.9V534.6z"/>
					</g>
				</g>
				<g>
					<path opacity="0.33" fill="#30302F" d="M1232,534.9c-0.7-1.1-1.8-2-3.8-2.3c0.1,0,0.2,0,0.2-0.1c0.1,0,0.2,0,0.2-0.1
						c0.2-0.1,0.3-0.2,0.5-0.3s0.3-0.3,0.5-0.5s0.3-0.4,0.5-0.7c0.6-1.1,1-2.9,1-5.8c0-1.1-0.3-2-0.7-2.9c-0.4-0.8-1.1-1.5-1.9-2.2
						c-0.3-0.3-0.7-0.5-1.1-0.8c-0.6-0.4-1.3-0.9-2-1.3c-0.2-0.1-0.5-0.3-0.7-0.4c-2.6-1.5-5.4-3-7.4-5.6c-1.6-2-2.7-4.6-2.7-8.3
						c0.4-0.2,2.5-1.7,3.9-2.8c0.2-0.2,0.4-0.3,0.6-0.4c0.6-0.4,0.9-1.1,0.9-1.8l0,0c0-1.1-0.8-2-1.8-2.2c-0.1,0-0.3,0-0.5,0
						c-1.5,0-3.6-0.3-5.4-1.4c-0.3-0.2-0.5-0.3-0.8-0.6c-0.4-0.3-0.7-0.7-1.1-1.1c-0.2-0.3-0.5-0.6-0.7-1c-1.1-1.7-1.8-4.1-1.8-7.5
						c0-5.4,0.9-10,1.9-13.7c0.3-0.9,0.5-1.8,0.8-2.6c0.2-0.6,0.4-1.1,0.6-1.6c0.6-1.6,1.3-2.9,1.7-3.8h2.5c1,0,1.9-0.4,2.5-0.9
						c0.2-0.1,0.3-0.3,0.5-0.5c0.4-0.5,0.7-1.2,0.8-1.9c0-0.3,0-0.5,0-0.8c-0.2-1.8-1.8-3.3-3.7-3.3h0h-1.8c-0.3,0-0.8-0.1-1.5-0.3
						c-0.3-0.1-0.7-0.2-1.1-0.4c-0.2-0.1-0.4-0.2-0.6-0.3c-0.4-0.2-0.9-0.4-1.4-0.7c-1.7-0.9-3.6-2-5.4-3.5c3.2-1.1,6-3,8.2-5.3
						c2.6-2.8,4.5-6.3,5.3-10.2c0.1-0.6,0.2-1.1,0.3-1.7c0.1-1.1,0.2-2.3,0.1-3.5c-0.1-2.7-0.7-5.3-1.8-7.6
						c-0.5-1.2-1.2-2.3-1.9-3.3c-0.7-1.1-1.5-2-2.4-2.9c0,0-0.1-0.1-0.1-0.1c-0.8-0.8-1.6-1.4-2.5-2.1c-1.5-1.1-3.1-1.9-4.8-2.6
						c-2-0.8-4.2-1.3-6.5-1.4c-0.1,0-0.1,0-0.2,0c-0.3,0-0.6,0-0.8,0l0,0c-11.6,0-21,9.4-21,21c0,9.2,5.9,16.9,14,19.8
						c-4.1,3.4-8.8,5.2-9.9,5.2h-1.3c-1.9,0-3.6,1.4-3.8,3.3c-0.2,2.2,1.5,4,3.7,4h2.2c1.6,3,5,10.8,5,21.6
						c0,10.1-6.2,11.5-9.7,11.6c-1.3,0-2.3,1-2.3,2.3l0,0c0,0.7,0.3,1.4,0.9,1.8c1.4,1.1,4,3,4.5,3.3c0,14.5-16.4,12.6-16.4,21.4
						c0,5.8,1.8,7.1,3,7.3c-4.9,0.7-4.8,5.8-4.8,5.8v6.5h35.9h35.9l0,0v-6.5C1233,538.3,1233,536.5,1232,534.9z"/>
					<g>
						<path fill="#424342" d="M1223.7,528.8c1.2-0.2,3-1.5,3-7.3c0-8.8-16.4-6.9-16.4-21.4c0.5-0.2,3.1-2.2,4.5-3.3
							c0.6-0.4,0.9-1.1,0.9-1.8l0,0c0-1.3-1-2.3-2.3-2.3c-3.5,0-9.7-1.4-9.7-11.6c0-10.8,3.4-18.5,5-21.6h2.5c1.9,0,3.6-1.4,3.8-3.3
							c0.2-2.2-1.5-4-3.7-4h-1.8c-1.2,0-5.8-1.8-9.9-5.2c8.4-3,14.4-11.2,14-20.7c-0.5-10.8-9.2-19.6-20-20.1
							c-12.1-0.6-22,9.1-22,21c0,9.2,5.9,16.9,14,19.8c-4.1,3.4-8.8,5.2-9.9,5.2h-1.3c-1.9,0-3.6,1.4-3.8,3.3c-0.2,2.2,1.5,4,3.7,4
							h2.2c1.6,3,5,10.8,5,21.6c0,10.1-6.2,11.5-9.7,11.6c-1.3,0-2.3,1-2.3,2.3l0,0c0,0.7,0.3,1.4,0.9,1.8c1.4,1.1,4,3,4.5,3.3
							c0,14.5-16.4,12.6-16.4,21.4c0,5.8,1.8,7.1,3,7.3c-4.9,0.7-4.8,5.8-4.8,5.8v6.5h71.9v-6.5
							C1228.5,534.6,1228.5,529.5,1223.7,528.8z"/>
						<path fill="#2B2B2B" d="M1228.5,534.6c0,0,0-5.1-4.8-5.8c1.2-0.2,3-1.5,3-7.3c0-8.8-16.4-6.9-16.4-21.4
							c0.5-0.2,3.1-2.2,4.5-3.3c0.6-0.4,0.9-1.1,0.9-1.8c0-1.3-1-2.3-2.3-2.3c-3.5,0-9.7-1.4-9.7-11.6c0-10.8,3.4-18.5,5-21.6h2.5
							c1.9,0,3.6-1.4,3.8-3.3c0.2-2.2-1.5-4-3.7-4h-1.8c-1.2,0-5.8-1.8-9.9-5.2c8.4-3,14.4-11.2,14-20.7c-0.5-10.8-9.2-19.6-20-20.1
							c-0.3,0-0.7,0-1,0v134.9h35.9V534.6z"/>
					</g>
				</g>
				<g>
					<path opacity="0.33" fill="#30302F" d="M1048.9,534.9c-0.7-1.1-1.8-2-3.8-2.3c0.1,0,0.2,0,0.2-0.1c0.1,0,0.2,0,0.2-0.1
						c0.2-0.1,0.3-0.2,0.5-0.3s0.3-0.3,0.5-0.5s0.3-0.4,0.5-0.7c0.6-1.1,1-2.9,1-5.8c0-1.1-0.3-2-0.7-2.9c-0.4-0.8-1.1-1.5-1.9-2.2
						c-0.3-0.3-0.7-0.5-1.1-0.8c-0.6-0.4-1.3-0.9-2-1.3c-0.2-0.1-0.5-0.3-0.7-0.4c-2.6-1.5-5.4-3-7.4-5.6c-1.6-2-2.7-4.6-2.7-8.3
						c0.4-0.2,2.5-1.7,3.9-2.8c0.2-0.2,0.4-0.3,0.6-0.4c0.6-0.4,0.9-1.1,0.9-1.8l0,0c0-1.1-0.8-2-1.8-2.2c-0.1,0-0.3,0-0.5,0
						c-1.5,0-3.6-0.3-5.4-1.4c-0.3-0.2-0.5-0.3-0.8-0.6c-0.4-0.3-0.7-0.7-1.1-1.1c-0.2-0.3-0.5-0.6-0.7-1c-1.1-1.7-1.8-4.1-1.8-7.5
						c0-5.4,0.9-10,1.9-13.7c0.3-0.9,0.5-1.8,0.8-2.6c0.2-0.6,0.4-1.1,0.6-1.6c0.6-1.6,1.3-2.9,1.7-3.8h2.5c1,0,1.9-0.4,2.5-0.9
						c0.2-0.1,0.3-0.3,0.5-0.5c0.4-0.5,0.7-1.2,0.8-1.9c0-0.3,0-0.5,0-0.8c-0.2-1.8-1.8-3.3-3.7-3.3h0h-1.8c-0.3,0-0.8-0.1-1.5-0.3
						c-0.3-0.1-0.7-0.2-1.1-0.4c-0.2-0.1-0.4-0.2-0.6-0.3c-0.4-0.2-0.9-0.4-1.4-0.7c-1.7-0.9-3.6-2-5.4-3.5c3.2-1.1,6-3,8.2-5.3
						c2.6-2.8,4.5-6.3,5.3-10.2c0.1-0.6,0.2-1.1,0.3-1.7c0.1-1.1,0.2-2.3,0.1-3.5c-0.1-2.7-0.7-5.3-1.8-7.6
						c-0.5-1.2-1.2-2.3-1.9-3.3c-0.7-1.1-1.5-2-2.4-2.9c0,0-0.1-0.1-0.1-0.1c-0.8-0.8-1.6-1.4-2.5-2.1c-1.5-1.1-3.1-1.9-4.8-2.6
						c-2-0.8-4.2-1.3-6.5-1.4c-0.1,0-0.1,0-0.2,0c-0.3,0-0.6,0-0.8,0l0,0c-11.6,0-21,9.4-21,21c0,9.2,5.9,16.9,14,19.8
						c-4.1,3.4-8.8,5.2-9.9,5.2h-1.3c-1.9,0-3.6,1.4-3.8,3.3c-0.2,2.2,1.5,4,3.7,4h2.2c1.6,3,5,10.8,5,21.6
						c0,10.1-6.2,11.5-9.7,11.6c-1.3,0-2.3,1-2.3,2.3l0,0c0,0.7,0.3,1.4,0.9,1.8c1.4,1.1,4,3,4.5,3.3c0,14.5-16.4,12.6-16.4,21.4
						c0,5.8,1.8,7.1,3,7.3c-4.9,0.7-4.8,5.8-4.8,5.8v6.5h35.9h35.9l0,0v-6.5C1050,538.3,1050,536.5,1048.9,534.9z"/>
					<g>
						<path fill="#424342" d="M1040.6,528.8c1.2-0.2,3-1.5,3-7.3c0-8.8-16.4-6.9-16.4-21.4c0.5-0.2,3.1-2.2,4.5-3.3
							c0.6-0.4,0.9-1.1,0.9-1.8l0,0c0-1.3-1-2.3-2.3-2.3c-3.5,0-9.7-1.4-9.7-11.6c0-10.8,3.4-18.5,5-21.6h2.5c1.9,0,3.6-1.4,3.8-3.3
							c0.2-2.2-1.5-4-3.7-4h-1.8c-1.2,0-5.8-1.8-9.9-5.2c8.4-3,14.4-11.2,14-20.7c-0.5-10.8-9.2-19.6-20-20.1
							c-12.1-0.6-22,9.1-22,21c0,9.2,5.9,16.9,14,19.8c-4.1,3.4-8.8,5.2-9.9,5.2h-1.3c-1.9,0-3.6,1.4-3.8,3.3c-0.2,2.2,1.5,4,3.7,4
							h2.2c1.6,3,5,10.8,5,21.6c0,10.1-6.2,11.5-9.7,11.6c-1.3,0-2.3,1-2.3,2.3l0,0c0,0.7,0.3,1.4,0.9,1.8c1.4,1.1,4,3,4.5,3.3
							c0,14.5-16.4,12.6-16.4,21.4c0,5.8,1.8,7.1,3,7.3c-4.9,0.7-4.8,5.8-4.8,5.8v6.5h71.9v-6.5
							C1045.5,534.6,1045.5,529.5,1040.6,528.8z"/>
						<path fill="#2B2B2B" d="M1045.5,534.6c0,0,0-5.1-4.8-5.8c1.2-0.2,3-1.5,3-7.3c0-8.8-16.4-6.9-16.4-21.4
							c0.5-0.2,3.1-2.2,4.5-3.3c0.6-0.4,0.9-1.1,0.9-1.8c0-1.3-1-2.3-2.3-2.3c-3.5,0-9.7-1.4-9.7-11.6c0-10.8,3.4-18.5,5-21.6h2.5
							c1.9,0,3.6-1.4,3.8-3.3c0.2-2.2-1.5-4-3.7-4h-1.8c-1.2,0-5.8-1.8-9.9-5.2c8.4-3,14.4-11.2,14-20.7c-0.5-10.8-9.2-19.6-20-20.1
							c-0.3,0-0.7,0-1,0v134.9h35.9V534.6z"/>
					</g>
				</g>
				<g>
					<path opacity="0.33" fill="#30302F" d="M865.9,534.9c-0.7-1.1-1.8-2-3.8-2.3c0.1,0,0.2,0,0.2-0.1s0.2,0,0.2-0.1
						c0.2-0.1,0.3-0.2,0.5-0.3s0.3-0.3,0.5-0.5s0.3-0.4,0.5-0.7c0.6-1.1,1-2.9,1-5.8c0-1.1-0.3-2-0.7-2.9s-1.1-1.5-1.9-2.2
						c-0.3-0.3-0.7-0.5-1.1-0.8c-0.6-0.4-1.3-0.9-2-1.3c-0.2-0.1-0.5-0.3-0.7-0.4c-2.6-1.5-5.4-3-7.4-5.6c-1.6-2-2.7-4.6-2.7-8.3
						c0.4-0.2,2.5-1.7,3.9-2.8c0.2-0.2,0.4-0.3,0.6-0.4c0.6-0.4,0.9-1.1,0.9-1.8l0,0c0-1.1-0.8-2-1.8-2.2c-0.1,0-0.3,0-0.5,0
						c-1.5,0-3.6-0.3-5.4-1.4c-0.3-0.2-0.5-0.3-0.8-0.6c-0.4-0.3-0.7-0.7-1.1-1.1c-0.2-0.3-0.5-0.6-0.7-1c-1.1-1.7-1.8-4.1-1.8-7.5
						c0-5.4,0.9-10,1.9-13.7c0.3-0.9,0.5-1.8,0.8-2.6c0.2-0.6,0.4-1.1,0.6-1.6c0.6-1.6,1.3-2.9,1.7-3.8h2.5c1,0,1.9-0.4,2.5-0.9
						c0.2-0.1,0.3-0.3,0.5-0.5c0.4-0.5,0.7-1.2,0.8-1.9c0-0.3,0-0.5,0-0.8c-0.2-1.8-1.8-3.3-3.7-3.3h0h-1.8c-0.3,0-0.8-0.1-1.5-0.3
						c-0.3-0.1-0.7-0.2-1.1-0.4c-0.2-0.1-0.4-0.2-0.6-0.3c-0.4-0.2-0.9-0.4-1.4-0.7c-1.7-0.9-3.6-2-5.4-3.5c3.2-1.1,6-3,8.2-5.3
						c2.6-2.8,4.5-6.3,5.3-10.2c0.1-0.6,0.2-1.1,0.3-1.7c0.1-1.1,0.2-2.3,0.1-3.5c-0.1-2.7-0.7-5.3-1.8-7.6
						c-0.5-1.2-1.2-2.3-1.9-3.3c-0.7-1.1-1.5-2-2.4-2.9c0,0-0.1-0.1-0.1-0.1c-0.8-0.8-1.6-1.4-2.5-2.1c-1.5-1.1-3.1-1.9-4.8-2.6
						c-2-0.8-4.2-1.3-6.5-1.4c-0.1,0-0.1,0-0.2,0c-0.3,0-0.6,0-0.8,0l0,0c-11.6,0-21,9.4-21,21c0,9.2,5.9,16.9,14,19.8
						c-4.1,3.4-8.8,5.2-9.9,5.2h-1.3c-1.9,0-3.6,1.4-3.8,3.3c-0.2,2.2,1.5,4,3.7,4h2.2c1.6,3,5,10.8,5,21.6
						c0,10.1-6.2,11.5-9.7,11.6c-1.3,0-2.3,1-2.3,2.3l0,0c0,0.7,0.3,1.4,0.9,1.8c1.4,1.1,4,3,4.5,3.3c0,14.5-16.4,12.6-16.4,21.4
						c0,5.8,1.8,7.1,3,7.3c-4.9,0.7-4.8,5.8-4.8,5.8v6.5H831H867h0v-6.5C867,538.3,867,536.5,865.9,534.9z"/>
					<g>
						<path fill="#424342" d="M857.6,528.8c1.2-0.2,3-1.5,3-7.3c0-8.8-16.4-6.9-16.4-21.4c0.5-0.2,3.1-2.2,4.5-3.3
							c0.6-0.4,0.9-1.1,0.9-1.8l0,0c0-1.3-1-2.3-2.3-2.3c-3.5,0-9.7-1.4-9.7-11.6c0-10.8,3.4-18.5,5-21.6h2.5c1.9,0,3.6-1.4,3.8-3.3
							c0.2-2.2-1.5-4-3.7-4h-1.8c-1.2,0-5.8-1.8-9.9-5.2c8.4-3,14.4-11.2,14-20.7c-0.5-10.8-9.2-19.6-20-20.1
							c-12.1-0.6-22,9.1-22,21c0,9.2,5.9,16.9,14,19.8c-4.1,3.4-8.8,5.2-9.9,5.2h-1.3c-1.9,0-3.6,1.4-3.8,3.3c-0.2,2.2,1.5,4,3.7,4
							h2.2c1.6,3,5,10.8,5,21.6c0,10.1-6.2,11.5-9.7,11.6c-1.3,0-2.3,1-2.3,2.3l0,0c0,0.7,0.3,1.4,0.9,1.8c1.4,1.1,4,3,4.5,3.3
							c0,14.5-16.4,12.6-16.4,21.4c0,5.8,1.8,7.1,3,7.3c-4.9,0.7-4.8,5.8-4.8,5.8v6.5h71.9v-6.5
							C862.5,534.6,862.5,529.5,857.6,528.8z"/>
						<path fill="#2B2B2B" d="M862.5,534.6c0,0,0-5.1-4.8-5.8c1.2-0.2,3-1.5,3-7.3c0-8.8-16.4-6.9-16.4-21.4
							c0.5-0.2,3.1-2.2,4.5-3.3c0.6-0.4,0.9-1.1,0.9-1.8c0-1.3-1-2.3-2.3-2.3c-3.5,0-9.7-1.4-9.7-11.6c0-10.8,3.4-18.5,5-21.6h2.5
							c1.9,0,3.6-1.4,3.8-3.3c0.2-2.2-1.5-4-3.7-4h-1.8c-1.2,0-5.8-1.8-9.9-5.2c8.4-3,14.4-11.2,14-20.7c-0.5-10.8-9.2-19.6-20-20.1
							c-0.3,0-0.7,0-1,0v134.9h35.9V534.6z"/>
					</g>
				</g>
				<g>
					<path opacity="0.33" fill="#30302F" d="M682.9,534.9c-0.7-1.1-1.8-2-3.8-2.3c0.1,0,0.2,0,0.2-0.1s0.2,0,0.2-0.1
						c0.2-0.1,0.3-0.2,0.5-0.3s0.3-0.3,0.5-0.5s0.3-0.4,0.5-0.7c0.6-1.1,1-2.9,1-5.8c0-1.1-0.3-2-0.7-2.9s-1.1-1.5-1.9-2.2
						c-0.3-0.3-0.7-0.5-1.1-0.8c-0.6-0.4-1.3-0.9-2-1.3c-0.2-0.1-0.5-0.3-0.7-0.4c-2.6-1.5-5.4-3-7.4-5.6c-1.6-2-2.7-4.6-2.7-8.3
						c0.4-0.2,2.5-1.7,3.9-2.8c0.2-0.2,0.4-0.3,0.6-0.4c0.6-0.4,0.9-1.1,0.9-1.8l0,0c0-1.1-0.8-2-1.8-2.2c-0.1,0-0.3,0-0.5,0
						c-1.5,0-3.6-0.3-5.4-1.4c-0.3-0.2-0.5-0.3-0.8-0.6c-0.4-0.3-0.7-0.7-1.1-1.1c-0.2-0.3-0.5-0.6-0.7-1c-1.1-1.7-1.8-4.1-1.8-7.5
						c0-5.4,0.9-10,1.9-13.7c0.3-0.9,0.5-1.8,0.8-2.6c0.2-0.6,0.4-1.1,0.6-1.6c0.6-1.6,1.3-2.9,1.7-3.8h2.5c1,0,1.9-0.4,2.5-0.9
						c0.2-0.1,0.3-0.3,0.5-0.5c0.4-0.5,0.7-1.2,0.8-1.9c0-0.3,0-0.5,0-0.8c-0.2-1.8-1.8-3.3-3.7-3.3h0h-1.8c-0.3,0-0.8-0.1-1.5-0.3
						c-0.3-0.1-0.7-0.2-1.1-0.4c-0.2-0.1-0.4-0.2-0.6-0.3c-0.4-0.2-0.9-0.4-1.4-0.7c-1.7-0.9-3.6-2-5.4-3.5c3.2-1.1,6-3,8.2-5.3
						c2.6-2.8,4.5-6.3,5.3-10.2c0.1-0.6,0.2-1.1,0.3-1.7c0.1-1.1,0.2-2.3,0.1-3.5c-0.1-2.7-0.7-5.3-1.8-7.6
						c-0.5-1.2-1.2-2.3-1.9-3.3c-0.7-1.1-1.5-2-2.4-2.9c0,0-0.1-0.1-0.1-0.1c-0.8-0.8-1.6-1.4-2.5-2.1c-1.5-1.1-3.1-1.9-4.8-2.6
						c-2-0.8-4.2-1.3-6.5-1.4c-0.1,0-0.1,0-0.2,0c-0.3,0-0.6,0-0.8,0l0,0c-11.6,0-21,9.4-21,21c0,9.2,5.9,16.9,14,19.8
						c-4.1,3.4-8.8,5.2-9.9,5.2h-1.3c-1.9,0-3.6,1.4-3.8,3.3c-0.2,2.2,1.5,4,3.7,4h2.2c1.6,3,5,10.8,5,21.6
						c0,10.1-6.2,11.5-9.7,11.6c-1.3,0-2.3,1-2.3,2.3l0,0c0,0.7,0.3,1.4,0.9,1.8c1.4,1.1,4,3,4.5,3.3c0,14.5-16.4,12.6-16.4,21.4
						c0,5.8,1.8,7.1,3,7.3c-4.9,0.7-4.8,5.8-4.8,5.8v6.5H648h35.9h0v-6.5C683.9,538.3,683.9,536.5,682.9,534.9z"/>
					<g>
						<path fill="#424342" d="M674.6,528.8c1.2-0.2,3-1.5,3-7.3c0-8.8-16.4-6.9-16.4-21.4c0.5-0.2,3.1-2.2,4.5-3.3
							c0.6-0.4,0.9-1.1,0.9-1.8l0,0c0-1.3-1-2.3-2.3-2.3c-3.5,0-9.7-1.4-9.7-11.6c0-10.8,3.4-18.5,5-21.6h2.5c1.9,0,3.6-1.4,3.8-3.3
							c0.2-2.2-1.5-4-3.7-4h-1.8c-1.2,0-5.8-1.8-9.9-5.2c8.4-3,14.4-11.2,14-20.7c-0.5-10.8-9.2-19.6-20-20.1
							c-12.1-0.6-22,9.1-22,21c0,9.2,5.9,16.9,14,19.8c-4.1,3.4-8.8,5.2-9.9,5.2h-1.3c-1.9,0-3.6,1.4-3.8,3.3c-0.2,2.2,1.5,4,3.7,4
							h2.2c1.6,3,5,10.8,5,21.6c0,10.1-6.2,11.5-9.7,11.6c-1.3,0-2.3,1-2.3,2.3l0,0c0,0.7,0.3,1.4,0.9,1.8c1.4,1.1,4,3,4.5,3.3
							c0,14.5-16.4,12.6-16.4,21.4c0,5.8,1.8,7.1,3,7.3c-4.9,0.7-4.8,5.8-4.8,5.8v6.5h71.9v-6.5
							C679.4,534.6,679.5,529.5,674.6,528.8z"/>
						<path fill="#2B2B2B" d="M679.4,534.6c0,0,0-5.1-4.8-5.8c1.2-0.2,3-1.5,3-7.3c0-8.8-16.4-6.9-16.4-21.4
							c0.5-0.2,3.1-2.2,4.5-3.3c0.6-0.4,0.9-1.1,0.9-1.8c0-1.3-1-2.3-2.3-2.3c-3.5,0-9.7-1.4-9.7-11.6c0-10.8,3.4-18.5,5-21.6h2.5
							c1.9,0,3.6-1.4,3.8-3.3c0.2-2.2-1.5-4-3.7-4h-1.8c-1.2,0-5.8-1.8-9.9-5.2c8.4-3,14.4-11.2,14-20.7c-0.5-10.8-9.2-19.6-20-20.1
							c-0.3,0-0.7,0-1,0v134.9h35.9V534.6z"/>
					</g>
				</g>
				<g>
					<path opacity="0.33" fill="#30302F" d="M499.9,534.9c-0.7-1.1-1.8-2-3.8-2.3c0.1,0,0.2,0,0.2-0.1s0.2,0,0.2-0.1
						c0.2-0.1,0.3-0.2,0.5-0.3s0.3-0.3,0.5-0.5s0.3-0.4,0.5-0.7c0.6-1.1,1-2.9,1-5.8c0-1.1-0.3-2-0.7-2.9s-1.1-1.5-1.9-2.2
						c-0.3-0.3-0.7-0.5-1.1-0.8c-0.6-0.4-1.3-0.9-2-1.3c-0.2-0.1-0.5-0.3-0.7-0.4c-2.6-1.5-5.4-3-7.4-5.6c-1.6-2-2.7-4.6-2.7-8.3
						c0.4-0.2,2.5-1.7,3.9-2.8c0.2-0.2,0.4-0.3,0.6-0.4c0.6-0.4,0.9-1.1,0.9-1.8l0,0c0-1.1-0.8-2-1.8-2.2c-0.1,0-0.3,0-0.5,0
						c-1.5,0-3.6-0.3-5.4-1.4c-0.3-0.2-0.5-0.3-0.8-0.6c-0.4-0.3-0.7-0.7-1.1-1.1c-0.2-0.3-0.5-0.6-0.7-1c-1.1-1.7-1.8-4.1-1.8-7.5
						c0-5.4,0.9-10,1.9-13.7c0.3-0.9,0.5-1.8,0.8-2.6c0.2-0.6,0.4-1.1,0.6-1.6c0.6-1.6,1.3-2.9,1.7-3.8h2.5c1,0,1.9-0.4,2.5-0.9
						c0.2-0.1,0.3-0.3,0.5-0.5c0.4-0.5,0.7-1.2,0.8-1.9c0-0.3,0-0.5,0-0.8c-0.2-1.8-1.8-3.3-3.7-3.3h0h-1.8c-0.3,0-0.8-0.1-1.5-0.3
						c-0.3-0.1-0.7-0.2-1.1-0.4c-0.2-0.1-0.4-0.2-0.6-0.3c-0.4-0.2-0.9-0.4-1.4-0.7c-1.7-0.9-3.6-2-5.4-3.5c3.2-1.1,6-3,8.2-5.3
						c2.6-2.8,4.5-6.3,5.3-10.2c0.1-0.6,0.2-1.1,0.3-1.7c0.1-1.1,0.2-2.3,0.1-3.5c-0.1-2.7-0.7-5.3-1.8-7.6
						c-0.5-1.2-1.2-2.3-1.9-3.3c-0.7-1.1-1.5-2-2.4-2.9c0,0-0.1-0.1-0.1-0.1c-0.8-0.8-1.6-1.4-2.5-2.1c-1.5-1.1-3.1-1.9-4.8-2.6
						c-2-0.8-4.2-1.3-6.5-1.4c-0.1,0-0.1,0-0.2,0c-0.3,0-0.6,0-0.8,0l0,0c-11.6,0-21,9.4-21,21c0,9.2,5.9,16.9,14,19.8
						c-4.1,3.4-8.8,5.2-9.9,5.2h-1.3c-1.9,0-3.6,1.4-3.8,3.3c-0.2,2.2,1.5,4,3.7,4h2.2c1.6,3,5,10.8,5,21.6
						c0,10.1-6.2,11.5-9.7,11.6c-1.3,0-2.3,1-2.3,2.3l0,0c0,0.7,0.3,1.4,0.9,1.8c1.4,1.1,4,3,4.5,3.3c0,14.5-16.4,12.6-16.4,21.4
						c0,5.8,1.8,7.1,3,7.3c-4.9,0.7-4.8,5.8-4.8,5.8v6.5H465h35.9h0v-6.5C500.9,538.3,500.9,536.5,499.9,534.9z"/>
					<g>
						<path fill="#424342" d="M491.6,528.8c1.2-0.2,3-1.5,3-7.3c0-8.8-16.4-6.9-16.4-21.4c0.5-0.2,3.1-2.2,4.5-3.3
							c0.6-0.4,0.9-1.1,0.9-1.8l0,0c0-1.3-1-2.3-2.3-2.3c-3.5,0-9.7-1.4-9.7-11.6c0-10.8,3.4-18.5,5-21.6h2.5c1.9,0,3.6-1.4,3.8-3.3
							c0.2-2.2-1.5-4-3.7-4h-1.8c-1.2,0-5.8-1.8-9.9-5.2c8.4-3,14.4-11.2,14-20.7c-0.5-10.8-9.2-19.6-20-20.1
							c-12.1-0.6-22,9.1-22,21c0,9.2,5.9,16.9,14,19.8c-4.1,3.4-8.8,5.2-9.9,5.2h-1.3c-1.9,0-3.6,1.4-3.8,3.3c-0.2,2.2,1.5,4,3.7,4
							h2.2c1.6,3,5,10.8,5,21.6c0,10.1-6.2,11.5-9.7,11.6c-1.3,0-2.3,1-2.3,2.3l0,0c0,0.7,0.3,1.4,0.9,1.8c1.4,1.1,4,3,4.5,3.3
							c0,14.5-16.4,12.6-16.4,21.4c0,5.8,1.8,7.1,3,7.3c-4.9,0.7-4.8,5.8-4.8,5.8v6.5h71.9v-6.5
							C496.4,534.6,496.5,529.5,491.6,528.8z"/>
						<path fill="#2B2B2B" d="M496.4,534.6c0,0,0-5.1-4.8-5.8c1.2-0.2,3-1.5,3-7.3c0-8.8-16.4-6.9-16.4-21.4
							c0.5-0.2,3.1-2.2,4.5-3.3c0.6-0.4,0.9-1.1,0.9-1.8c0-1.3-1-2.3-2.3-2.3c-3.5,0-9.7-1.4-9.7-11.6c0-10.8,3.4-18.5,5-21.6h2.5
							c1.9,0,3.6-1.4,3.8-3.3c0.2-2.2-1.5-4-3.7-4h-1.8c-1.2,0-5.8-1.8-9.9-5.2c8.4-3,14.4-11.2,14-20.7c-0.5-10.8-9.2-19.6-20-20.1
							c-0.3,0-0.7,0-1,0v134.9h35.9V534.6z"/>
					</g>
				</g>
				<g>
					<path opacity="0.33" fill="#30302F" d="M697.9,342.5c1.6-1.5,3.7-4,3.4-9c-0.4-7.5-20.3-15.3-23.9-20.3h9.8
						c1.7,0,3.2-1.4,3.2-3.2s-1.4-3.2-3.2-3.2H679v-5.7c5.6-0.1,9.2-0.2,9.5-0.5c0.9-0.9,17-92.7-16.1-124.8c0,0,4.1-11.5,3.2-11.3
						c-0.9,0.2-12.9,13.7-12.9,12.8s-10.2-12.6-10.1-12.1c0.2,0.5-0.5,13.2-0.5,13.2l-10.7,4.7c0,0-31,26.5-31,27
						c0,0.5-4.1,3.3-4.1,3.8c0,0.5,5.7,14,6.1,14c0.5,0,7.1,2.7,7.4,2.2c0.3-0.5,11.3-8,11.3-8s8.2-1.1,8.7-0.8
						c0.5,0.3,11.5,1.9,12.9,4.4c0,0-9.9,43.3-38.5,70.1l-0.8,4.9c1.2,0.2,7.5,0.3,15.9,0.4v5.7h-11.8c-1.7,0-3.2,1.4-3.2,3.2
						s1.4,3.2,3.2,3.2h9.8c-3.6,5-23.5,12.9-23.9,20.3c-0.3,5,1.7,7.5,3.4,9c-2.6,1.7-3.4,4.1-3.4,4.1v9.9h49h49v-9.9
						C701.4,346.5,700.5,344.2,697.9,342.5z"/>
					<path fill="#424342" d="M689.3,337.9c1.6-1.5,3.7-4,3.4-9c-0.4-7.5-20.3-15.3-23.9-20.3h9.8c1.7,0,3.2-1.4,3.2-3.2
						s-1.4-3.2-3.2-3.2h-8.2v-5.7c5.6-0.1,9.2-0.2,9.5-0.5c0.9-0.9,17-92.7-16.1-124.8c0,0,4.1-11.5,3.2-11.3s-12.9,13.7-12.9,12.8
						s-10.2-12.6-10.1-12.1c0.2,0.5-0.5,13.2-0.5,13.2l-10.7,4.7c0,0-31,26.5-31,27c0,0.5-4.1,3.3-4.1,3.8c0,0.5,5.7,14,6.1,14
						c0.5,0,7.1,2.7,7.4,2.2c0.3-0.5,11.3-8,11.3-8s8.2-1.1,8.7-0.8c0.5,0.3,11.5,1.9,12.9,4.4c0,0-9.9,43.3-38.5,70.1l-0.8,4.9
						c1.2,0.2,7.5,0.3,15.9,0.4v5.7h-11.8c-1.7,0-3.2,1.4-3.2,3.2s1.4,3.2,3.2,3.2h9.8c-3.6,5-23.5,12.9-23.9,20.3
						c-0.3,5,1.7,7.5,3.4,9c-2.6,1.7-3.4,4.1-3.4,4.1v9.9h49h49V342C692.7,342,691.9,339.6,689.3,337.9z"/>
					<path fill="#2B2B2B" d="M689.3,337.9c1.6-1.5,3.7-4,3.4-9c-0.4-7.5-20.3-15.3-23.9-20.3h9.8c1.7,0,3.2-1.4,3.2-3.2
						c0-1.7-1.4-3.2-3.2-3.2h-8.2v-5.7c5.6-0.1,9.2-0.2,9.5-0.5c0.9-0.9,17-92.7-16.1-124.8c0,0,4.1-11.5,3.2-11.3
						c-0.9,0.1-11.5,12.1-12.8,12.8v179.2h38.7V342C692.7,342,691.9,339.6,689.3,337.9z"/>
				</g>
				<g>
					<path opacity="0.33" fill="#30302F" d="M1608.5,343c1.6-1.5,3.7-4,3.4-9c-0.4-7.5-20.3-15.3-23.9-20.3h9.8
						c1.7,0,3.2-1.4,3.2-3.2c0-1.7-1.4-3.2-3.2-3.2h-8.2v-5.7c5.6-0.1,9.2-0.2,9.5-0.5c0.9-0.9,17-92.7-16.1-124.8
						c0,0,4.1-11.5,3.2-11.3c-0.9,0.2-12.9,13.7-12.9,12.8s-10.2-12.6-10.1-12.1c0.2,0.5-0.5,13.2-0.5,13.2l-10.7,4.7
						c0,0-31,26.5-31,27c0,0.5-4.1,3.3-4.1,3.8c0,0.5,5.7,14,6.1,14s7.1,2.7,7.4,2.2c0.3-0.5,11.3-8,11.3-8s8.2-1.1,8.7-0.8
						c0.5,0.3,11.5,1.9,12.9,4.4c0,0-9.9,43.3-38.5,70.1l-0.8,4.9c1.2,0.2,7.5,0.3,15.9,0.4v5.7h-11.8c-1.7,0-3.2,1.4-3.2,3.2
						c0,1.7,1.4,3.2,3.2,3.2h9.8c-3.6,5-23.5,12.9-23.9,20.3c-0.3,5,1.7,7.5,3.4,9c-2.6,1.7-3.4,4.1-3.4,4.1v9.9h49h49v-9.9
						C1611.9,347.1,1611.1,344.8,1608.5,343z"/>
					<path fill="#424342" d="M1599.9,338.5c1.6-1.5,3.7-4,3.4-9c-0.4-7.5-20.3-15.3-23.9-20.3h9.8c1.7,0,3.2-1.4,3.2-3.2
						c0-1.7-1.4-3.2-3.2-3.2h-8.2v-5.7c5.6-0.1,9.2-0.2,9.5-0.5c0.9-0.9,17-92.7-16.1-124.8c0,0,4.1-11.5,3.2-11.3
						c-0.9,0.2-12.9,13.7-12.9,12.8s-10.2-12.6-10.1-12.1c0.2,0.5-0.5,13.2-0.5,13.2l-10.7,4.7c0,0-31,26.5-31,27
						c0,0.5-4.1,3.3-4.1,3.8c0,0.5,5.7,14,6.1,14c0.5,0,7.1,2.7,7.4,2.2c0.3-0.5,11.3-8,11.3-8s8.2-1.1,8.7-0.8
						c0.5,0.3,11.5,1.9,12.9,4.4c0,0-9.9,43.3-38.5,70.1l-0.8,4.9c1.2,0.2,7.5,0.3,15.9,0.4v5.7h-11.8c-1.7,0-3.2,1.4-3.2,3.2
						c0,1.7,1.4,3.2,3.2,3.2h9.8c-3.6,5-23.5,12.9-23.9,20.3c-0.3,5,1.7,7.5,3.4,9c-2.6,1.7-3.4,4.1-3.4,4.1v9.9h49h49v-9.9
						C1603.3,342.5,1602.5,340.2,1599.9,338.5z"/>
					<path fill="#2B2B2B" d="M1599.9,338.5c1.6-1.5,3.7-4,3.4-9c-0.4-7.5-20.3-15.3-23.9-20.3h9.8c1.7,0,3.2-1.4,3.2-3.2
						c0-1.7-1.4-3.2-3.2-3.2h-8.2v-5.7c5.6-0.1,9.2-0.2,9.5-0.5c0.9-0.9,17-92.7-16.1-124.8c0,0,4.1-11.5,3.2-11.3
						c-0.9,0.1-11.5,12.1-12.8,12.8v179.2h38.7v-9.9C1603.3,342.5,1602.5,340.2,1599.9,338.5z"/>
				</g>
				<g>
					<path opacity="0.33" fill="#30302F" d="M870.5,341c0,0,4.4-3.2,4.4-11.3s-18.2-18.5-18.2-29.3c0-10.7,7.3-9.6,7.3-10
						c0-0.5,0-5.9,0-5.9s-10-0.2-11.7-8.1c-0.7-3.1-1.9-14.8-3.2-27.7h7.4c2.2,0,4.1-1.8,4.1-4.1V243c0-2.2-1.8-4.1-4.1-4.1H853
						c1.9,0,3.4-1.5,3.4-3.4v0c0-1.9-1.5-3.4-3.4-3.4h-5.3c-0.3-3-0.5-5.9-0.8-8.6c5.2-4.2,14.7-13.4,14.7-23.3
						c0-13.6-7.6-25.3-13.6-33.7c-6-8.4-6.4-16.5-6.4-16.5s-0.2,0-0.5,0c3.3-1.3,5.4-3.5,5.4-5.9c0-4.1-6.1-7.3-13.5-7.3
						s-13.5,3.3-13.5,7.3c0,2.4,2.1,4.5,5.4,5.9c-0.3,0-0.5,0-0.5,0s-0.5,8.1-6.4,16.5c-6,8.4-13.6,20.1-13.6,33.7
						c0,9.8,9.3,18.9,14.5,23.2c-0.2,2.7-0.5,5.7-0.8,8.8h-5.1c-1.9,0-3.4,1.5-3.4,3.4v0c0,1.9,1.5,3.4,3.4,3.4h-3.6
						c-2.2,0-4.1,1.8-4.1,4.1v1.6c0,2.2,1.8,4.1,4.1,4.1h7.2c-1.3,12.9-2.5,24.6-3.2,27.7c-1.7,7.9-11.7,8.1-11.7,8.1s0,5.4,0,5.9
						c0,0.5,7.3-0.7,7.3,10c0,10.7-18.2,21.1-18.2,29.3s4.4,11.3,4.4,11.3c-3.4,1.3-4.4,5.5-4.4,5.5v11.1h42.2h0.1h42.2v-11.1
						C874.9,346.5,873.9,342.3,870.5,341z"/>
					<path fill="#FFFFFF" d="M863.7,339c0,0,4.4-3.2,4.4-11.3S850,309.1,850,298.4c0-10.7,7.3-9.6,7.3-10c0-0.5,0-5.9,0-5.9
						s-10-0.2-11.7-8.1c-0.7-3.1-1.9-14.8-3.2-27.7h7.4c2.2,0,4.1-1.8,4.1-4.1V241c0-2.2-1.8-4.1-4.1-4.1h-3.6
						c1.9,0,3.4-1.5,3.4-3.4v0c0-1.9-1.5-3.4-3.4-3.4h-5.3c-0.3-3-0.5-5.9-0.8-8.6c5.2-4.2,14.7-13.4,14.7-23.3
						c0-13.6-7.6-25.3-13.6-33.7c-6-8.4-6.4-16.5-6.4-16.5s-0.2,0-0.5,0c3.3-1.3,5.4-3.5,5.4-5.9c0-4.1-6.1-7.3-13.5-7.3
						c-7.5,0-13.5,3.3-13.5,7.3c0,2.4,2.1,4.5,5.4,5.9c-0.3,0-0.5,0-0.5,0s-0.5,8.1-6.4,16.5c-6,8.4-13.6,20.1-13.6,33.7
						c0,9.8,9.3,18.9,14.5,23.2c-0.2,2.7-0.5,5.7-0.8,8.8h-5.1c-1.9,0-3.4,1.5-3.4,3.4v0c0,1.9,1.5,3.4,3.4,3.4h-3.6
						c-2.2,0-4.1,1.8-4.1,4.1v1.6c0,2.2,1.8,4.1,4.1,4.1h7.2c-1.3,12.9-2.5,24.6-3.2,27.7c-1.7,7.9-11.7,8.1-11.7,8.1s0,5.4,0,5.9
						c0,0.5,7.3-0.7,7.3,10c0,10.7-18.2,21.1-18.2,29.3s4.4,11.3,4.4,11.3c-3.4,1.3-4.4,5.5-4.4,5.5v11.1h42.2h0.1h42.2v-11.1
						C868.1,344.5,867.1,340.3,863.7,339z"/>
					<path fill="#424342" d="M863.7,339c0,0,4.4-3.2,4.4-11.3S850,309.1,850,298.4c0-10.7,7.3-9.6,7.3-10c0-0.5,0-5.9,0-5.9
						s-10-0.2-11.7-8.1c-0.7-3.1-1.9-14.8-3.2-27.7h7.4c2.2,0,4.1-1.8,4.1-4.1V241c0-2.2-1.8-4.1-4.1-4.1h-3.6
						c1.9,0,3.4-1.5,3.4-3.4v0c0-1.9-1.5-3.4-3.4-3.4h-5.3c-0.3-3-0.5-5.9-0.8-8.6c5.2-4.2,14.7-13.4,14.7-23.3
						c0-13.6-7.6-25.3-13.6-33.7c-6-8.4-6.4-16.5-6.4-16.5s-0.2,0-0.5,0c3.3-1.3,5.4-3.5,5.4-5.9c0-4.1-6.1-7.3-13.5-7.3
						c-7.5,0-13.5,3.3-13.5,7.3c0,2.4,2.1,4.5,5.4,5.9c-0.3,0-0.5,0-0.5,0s-0.5,8.1-6.4,16.5c-6,8.4-13.6,20.1-13.6,33.7
						c0,9.8,9.3,18.9,14.5,23.2c-0.2,2.7-0.5,5.7-0.8,8.8h-5.1c-1.9,0-3.4,1.5-3.4,3.4v0c0,1.9,1.5,3.4,3.4,3.4h-3.6
						c-2.2,0-4.1,1.8-4.1,4.1v1.6c0,2.2,1.8,4.1,4.1,4.1h7.2c-1.3,12.9-2.5,24.6-3.2,27.7c-1.7,7.9-11.7,8.1-11.7,8.1s0,5.4,0,5.9
						c0,0.5,7.3-0.7,7.3,10c0,10.7-18.2,21.1-18.2,29.3s4.4,11.3,4.4,11.3c-3.4,1.3-4.4,5.5-4.4,5.5v11.1h42.2h0.1h42.2v-11.1
						C868.1,344.5,867.1,340.3,863.7,339z"/>
					<path fill="#2B2B2B" d="M863.7,339c0,0,4.4-3.2,4.4-11.3c0-8.1-18.2-18.5-18.2-29.3s7.3-9.6,7.3-10c0-0.5,0-5.9,0-5.9
						s-10-0.2-11.7-8.1c-0.7-3.1-1.9-14.8-3.2-27.7h7.4c2.2,0,4.1-1.8,4.1-4.1V241c0-2.2-1.8-4.1-4.1-4.1h-3.6
						c1.9,0,3.4-1.5,3.4-3.4s-1.5-3.4-3.4-3.4h-5.3c-0.3-3-0.5-5.9-0.8-8.6c5.2-4.2,14.7-13.4,14.7-23.3c0-13.6-7.6-25.3-13.6-33.7
						s-6.4-16.5-6.4-16.5s-0.2,0-0.5,0c3.3-1.3,5.4-3.5,5.4-5.9c0-4.1-6.1-7.3-13.5-7.3c0,0-0.1,0-0.1,0v220.6h0h42.2v-11.1
						C868.1,344.5,867.1,340.3,863.7,339z"/>
				</g>
				<g>
					<path opacity="0.33" fill="#30302F" d="M514.5,344.1c0,0,5.5-2.8,5.5-10c0-7.1-22.5-16.3-22.5-25.7c0-9.5,9-8.4,9-8.8
						c0-0.4,0-5.1,0-5.1s-12.4-0.2-14.5-7.1c-1.5-5.1-5.5-35.6-7.4-51.4h6.5c2.7,0,4.8-2.2,4.8-4.8c0-2.7-2.2-4.8-4.8-4.8h4.8
						c3.2,0,5.8-2.6,5.8-5.8v0c0-3.2-2.6-5.8-5.8-5.8c2.1-7,9.2-27.5,9.2-27.5h-11l-4.6,13.3h-10.2l3.5-13.3h-15.1h-15.1l3.5,13.3
						h-10.2l-4.6-13.3h-11c0,0,7.1,20.5,9.2,27.5c-3.2,0-5.8,2.6-5.8,5.8v0c0,3.2,2.6,5.8,5.8,5.8h4.8c-2.7,0-4.8,2.2-4.8,4.8
						c0,2.7,2.2,4.8,4.8,4.8h6.5c-2,15.8-5.9,46.3-7.4,51.4c-2.1,6.9-14.5,7.1-14.5,7.1s0,4.7,0,5.1c0,0.4,9-0.6,9,8.8
						c0,9.5-22.5,18.6-22.5,25.7c0,7.1,5.5,10,5.5,10c-4.2,1.2-5.5,4.8-5.5,4.8v9.8h52.2h0.1h52.2V349
						C519.9,349,518.7,345.3,514.5,344.1z"/>
					<path fill="#424342" d="M509.1,342.1c0,0,5.5-2.8,5.5-10c0-7.1-22.5-16.3-22.5-25.7c0-9.5,9-8.4,9-8.8c0-0.4,0-5.1,0-5.1
						s-12.4-0.2-14.5-7.1c-1.5-5.1-5.5-35.6-7.4-51.4h6.5c2.7,0,4.8-2.2,4.8-4.8c0-2.7-2.2-4.8-4.8-4.8h4.8c3.2,0,5.8-2.6,5.8-5.8v0
						c0-3.2-2.6-5.8-5.8-5.8c2.1-7,9.2-27.5,9.2-27.5h-11l-4.6,13.3h-10.2l3.5-13.3h-15.1h-15.1l3.5,13.3h-10.2l-4.6-13.3h-11
						c0,0,7.1,20.5,9.2,27.5c-3.2,0-5.8,2.6-5.8,5.8v0c0,3.2,2.6,5.8,5.8,5.8h4.8c-2.7,0-4.8,2.2-4.8,4.8c0,2.7,2.2,4.8,4.8,4.8h6.5
						c-2,15.8-5.9,46.3-7.4,51.4c-2.1,6.9-14.5,7.1-14.5,7.1s0,4.7,0,5.1c0,0.4,9-0.6,9,8.8c0,9.5-22.5,18.6-22.5,25.7
						c0,7.1,5.5,10,5.5,10c-4.2,1.2-5.5,4.8-5.5,4.8v9.8h52.2h0.1h52.2V347C514.6,347,513.3,343.3,509.1,342.1z"/>
					<path fill="#2B2B2B" d="M509.1,342.1c0,0,5.5-2.8,5.5-10c0-7.1-22.5-16.3-22.5-25.7s9-8.4,9-8.8c0-0.4,0-5.1,0-5.1
						s-12.4-0.2-14.5-7.1c-1.5-5.1-5.5-35.6-7.4-51.4h6.5c2.7,0,4.8-2.2,4.8-4.8s-2.2-4.8-4.8-4.8h4.8c3.2,0,5.8-2.6,5.8-5.8l0,0
						c0-3.2-2.6-5.8-5.8-5.8c2.1-7,9.2-27.5,9.2-27.5h-11l-4.6,13.3h-10.2l3.5-13.3h-15.1v171.8h0.1h52.2V347
						C514.6,347,513.3,343.3,509.1,342.1z"/>
				</g>
				<g>
					<path opacity="0.33" fill="#30302F" d="M1795.6,344.7c0,0,5.5-2.8,5.5-10c0-7.1-22.5-16.3-22.5-25.7s9-8.4,9-8.8
						c0-0.4,0-5.1,0-5.1s-12.4-0.2-14.5-7.1c-1.5-5.1-5.5-35.6-7.4-51.4h6.5c2.7,0,4.8-2.2,4.8-4.8c0-2.7-2.2-4.8-4.8-4.8h4.8
						c3.2,0,5.8-2.6,5.8-5.8v0c0-3.2-2.6-5.8-5.8-5.8c2.1-7,9.2-27.5,9.2-27.5h-11l-4.6,13.3h-10.2l3.5-13.3h-15.1h-15.1l3.5,13.3
						h-10.2l-4.6-13.3h-11c0,0,7.1,20.5,9.2,27.5c-3.2,0-5.8,2.6-5.8,5.8v0c0,3.2,2.6,5.8,5.8,5.8h4.8c-2.7,0-4.8,2.2-4.8,4.8
						c0,2.7,2.2,4.8,4.8,4.8h6.5c-2,15.8-5.9,46.3-7.4,51.4c-2.1,6.9-14.5,7.1-14.5,7.1s0,4.7,0,5.1c0,0.4,9-0.6,9,8.8
						s-22.5,18.6-22.5,25.7c0,7.1,5.5,10,5.5,10c-4.2,1.2-5.5,4.8-5.5,4.8v9.8h52.2h0.1h52.2v-9.8
						C1801,349.5,1799.8,345.9,1795.6,344.7z"/>
					<path fill="#424342" d="M1790.3,342.7c0,0,5.5-2.8,5.5-10c0-7.1-22.5-16.3-22.5-25.7s9-8.4,9-8.8s0-5.1,0-5.1
						s-12.4-0.2-14.5-7.1c-1.5-5.1-5.5-35.6-7.4-51.4h6.5c2.7,0,4.8-2.2,4.8-4.8c0-2.7-2.2-4.8-4.8-4.8h4.8c3.2,0,5.8-2.6,5.8-5.8v0
						c0-3.2-2.6-5.8-5.8-5.8c2.1-7,9.2-27.5,9.2-27.5h-11l-4.6,13.3h-10.2l3.5-13.3h-15.1h-15.1l3.5,13.3h-10.2l-4.6-13.3h-11
						c0,0,7.1,20.5,9.2,27.5c-3.2,0-5.8,2.6-5.8,5.8v0c0,3.2,2.6,5.8,5.8,5.8h4.8c-2.7,0-4.8,2.2-4.8,4.8c0,2.7,2.2,4.8,4.8,4.8h6.5
						c-2,15.8-5.9,46.3-7.4,51.4c-2.1,6.9-14.5,7.1-14.5,7.1s0,4.7,0,5.1s9-0.6,9,8.8s-22.5,18.6-22.5,25.7c0,7.1,5.5,10,5.5,10
						c-4.2,1.2-5.5,4.8-5.5,4.8v9.8h52.2h0.1h52.2v-9.8C1795.7,347.5,1794.5,343.9,1790.3,342.7z"/>
					<path fill="#2B2B2B" d="M1790.3,342.7c0,0,5.5-2.8,5.5-10c0-7.1-22.5-16.3-22.5-25.7s9-8.4,9-8.8c0-0.4,0-5.1,0-5.1
						s-12.4-0.2-14.5-7.1c-1.5-5.1-5.5-35.6-7.4-51.4h6.5c2.7,0,4.8-2.2,4.8-4.8s-2.2-4.8-4.8-4.8h4.8c3.2,0,5.8-2.6,5.8-5.8l0,0
						c0-3.2-2.6-5.8-5.8-5.8c2.1-7,9.2-27.5,9.2-27.5h-11l-4.6,13.3h-10.2l3.5-13.3h-15.1v171.8h0.1h52.2v-9.8
						C1795.7,347.5,1794.5,343.9,1790.3,342.7z"/>
				</g>
				<g>
					<path opacity="0.33" fill="#30302F" d="M1245.8,343.9c0,0,5.3-2.8,5.3-9.7c0-7-21.9-15.9-21.9-25.1c0-9.2,8.8-8.2,8.8-8.6
						s0-5,0-5s-12.1-0.2-14.1-7c-2-6.8-8.4-59.4-8.4-59.4s-1.2-3.5,1.6-6.1v-0.2h12.1c2.5,0,4.5-2,4.5-4.5v-1.8c0-2.5-2-4.5-4.5-4.5
						h-2.8c1.8,0,3.3-1.5,3.3-3.3c0-1.8-1.5-3.3-3.3-3.3h-9.3v-1.6l0.3-12.4c0,0,12.7-33.1,13.5-38.5c0.8-5.4-1.4-9.9-8.5-12
						c-3.7-1.1-9.1-1.8-13.7-2.2h2.6h0.1c1.3,0,2.3-1,2.3-2.3v-1.2c0-1.3-1-2.3-2.3-2.3h-0.1h-3.3l2.2-0.6l-4-14.6l12.4,2.5v0l0.1,0
						v-12.9l-0.1,0v0l-12.4,2.5l4-14.6l-8.3-4.3c1.8-0.7,3.1-2.5,3.1-4.6c0-2.7-2.2-4.9-4.9-4.9c-2.7,0-4.9,2.2-4.9,4.9
						c0,2.1,1.3,3.9,3.2,4.6l-8.3,4.2l4,14.6l-12.4-2.5v0l-0.1,0v12.9l0.1,0v0l12.4-2.5l-4,14.6l2.2,0.6h-3.3h-0.1
						c-1.3,0-2.3,1-2.3,2.3v1.2c0,1.3,1,2.3,2.3,2.3h0.1h2.6c-4.6,0.4-10,1.1-13.7,2.2c-7.1,2-9.3,6.6-8.5,12s13.5,38.5,13.5,38.5
						l0.3,12.4v1.6h-9.2c-1.8,0-3.3,1.5-3.3,3.3c0,1.8,1.5,3.3,3.3,3.3h-2.8c-2.5,0-4.5,2-4.5,4.5v1.8c0,2.5,2,4.5,4.5,4.5h12v0.2
						c2.9,2.7,1.6,6.1,1.6,6.1s-6.4,52.7-8.4,59.4c-2,6.8-14.1,7-14.1,7s0,4.6,0,5s8.8-0.6,8.8,8.6c0,9.2-21.9,18.1-21.9,25.1
						c0,7,5.3,9.7,5.3,9.7c-4.1,1.1-5.3,4.7-5.3,4.7v9.5h50.9h0.1h50.9v-9.5C1251.1,348.6,1249.9,345.1,1245.8,343.9z"/>
					<path fill="#424342" d="M1239.6,339.9c0,0,5.3-2.8,5.3-9.7c0-7-21.9-15.9-21.9-25.1c0-9.2,8.8-8.2,8.8-8.6s0-5,0-5
						s-12.1-0.2-14.1-7c-2-6.8-8.4-59.4-8.4-59.4s-1.2-3.5,1.6-6.1v-0.2h12.1c2.5,0,4.5-2,4.5-4.5v-1.8c0-2.5-2-4.5-4.5-4.5h-2.8
						c1.8,0,3.3-1.5,3.3-3.3c0-1.8-1.5-3.3-3.3-3.3h-9.3v-1.6l0.3-12.4c0,0,12.7-33.1,13.5-38.5c0.8-5.4-1.4-9.9-8.5-12
						c-3.7-1.1-9.1-1.8-13.7-2.2h2.6h0.1c1.3,0,2.3-1,2.3-2.3v-1.2c0-1.3-1-2.3-2.3-2.3h-0.1h-3.3l2.2-0.6l-4-14.6l12.4,2.5v0l0.1,0
						v-12.9l-0.1,0v0l-12.4,2.5l4-14.6l-8.3-4.3c1.8-0.7,3.1-2.5,3.1-4.6c0-2.7-2.2-4.9-4.9-4.9c-2.7,0-4.9,2.2-4.9,4.9
						c0,2.1,1.3,3.9,3.2,4.6l-8.3,4.2l4,14.6l-12.4-2.5v0l-0.1,0v12.9l0.1,0v0l12.4-2.5l-4,14.6l2.2,0.6h-3.3h-0.1
						c-1.3,0-2.3,1-2.3,2.3v1.2c0,1.3,1,2.3,2.3,2.3h0.1h2.6c-4.6,0.4-10,1.1-13.7,2.2c-7.1,2-9.3,6.6-8.5,12s13.5,38.5,13.5,38.5
						l0.3,12.4v1.6h-9.2c-1.8,0-3.3,1.5-3.3,3.3c0,1.8,1.5,3.3,3.3,3.3h-2.8c-2.5,0-4.5,2-4.5,4.5v1.8c0,2.5,2,4.5,4.5,4.5h12v0.2
						c2.9,2.7,1.6,6.1,1.6,6.1s-6.4,52.7-8.4,59.4c-2,6.8-14.1,7-14.1,7s0,4.6,0,5s8.8-0.6,8.8,8.6c0,9.2-21.9,18.1-21.9,25.1
						c0,7,5.3,9.7,5.3,9.7c-4.1,1.1-5.3,4.7-5.3,4.7v9.5h50.9h0.1h50.9v-9.5C1244.9,344.6,1243.7,341.1,1239.6,339.9z"/>
					<path fill="#2B2B2B" d="M1239.6,339.9c0,0,5.3-2.8,5.3-9.7c0-7-21.9-15.9-21.9-25.1c0-9.2,8.8-8.2,8.8-8.6c0-0.4,0-5,0-5
						s-12.1-0.2-14.1-7s-8.4-59.4-8.4-59.4s-1.2-3.5,1.6-6.1v-0.2h12.1c2.5,0,4.5-2,4.5-4.5v-1.8c0-2.5-2-4.5-4.5-4.5h-2.8
						c1.8,0,3.3-1.5,3.3-3.3c0-1.8-1.5-3.3-3.3-3.3h-9.3v-1.6l0.3-12.4c0,0,12.7-33.1,13.5-38.5s-1.4-9.9-8.5-12
						c-3.7-1.1-9.1-1.8-13.7-2.2h2.6h0.1c1.3,0,2.3-1,2.3-2.3v-1.2c0-1.3-1-2.3-2.3-2.3h-0.1h-3.3l2.2-0.6l-4-14.6l12.4,2.5v0l0.1,0
						v-12.9l-0.1,0v0l-12.4,2.5l4-14.6l-8.3-4.3c1.8-0.7,3.1-2.5,3.1-4.6c0-2.7-2.2-4.9-4.9-4.9v276.6h0.1h50.9v-9.5
						C1244.9,344.6,1243.7,341.1,1239.6,339.9z"/>
				</g>
				<g>
					<path opacity="0.33" fill="#30302F" d="M1073.2,342.7c0,0,4.9-2.6,4.9-9c0-6.4-20.2-14.7-20.2-23.2s8.1-7.6,8.1-7.9
						s0-4.6,0-4.6s-11.2-0.2-13.1-6.4c-1.9-6.2-7.8-54.9-7.8-54.9s-1.2-11.3,1.5-13.8v-0.1h11.2c2.3,0,4.1-1.9,4.1-4.1V217
						c0-2.3-1.9-4.1-4.1-4.1h-2.6c1.7,0,3.1-1.4,3.1-3.1c0-1.7-1.4-3.1-3.1-3.1h-1c0,0-2.6-15.2-2.1-27.8s15.9-30.5,15-32.9
						c-0.9-2.4-9.5,1.7-9.5,1.7s-2.2-4.6-2.7-4.7c-0.2-0.1-2.9,0.6-6.5,1.5c-2.9-5.4-8.2-9.3-14.5-10.3c2.3-1.1,3.9-3.5,3.9-6.2
						c0-3.8-3.1-6.9-6.9-6.9c-3.8,0-6.9,3.1-6.9,6.9c0,2.7,1.6,5.1,3.9,6.2c-6.3,0.9-11.6,4.9-14.5,10.3c-3.6-0.9-6.4-1.6-6.5-1.5
						c-0.5,0.2-2.7,4.7-2.7,4.7s-8.5-4.1-9.5-1.7c-0.9,2.4,14.5,20.3,15,32.9c0.5,12.5-2.1,27.8-2.1,27.8h-1c-1.7,0-3.1,1.4-3.1,3.1
						c0,1.7,1.4,3.1,3.1,3.1h-2.6c-2.3,0-4.1,1.9-4.1,4.1v1.6c0,2.3,1.9,4.1,4.1,4.1h11.1v0.1c2.6,2.5,1.6,13.8,1.6,13.8
						s-5.9,48.6-7.8,54.9c-1.9,6.2-13.1,6.4-13.1,6.4s0,4.3,0,4.6s8.1-0.6,8.1,7.9s-20.2,16.7-20.2,23.2c0,6.4,4.9,9,4.9,9
						c-3.8,1-4.9,4.4-4.9,4.4v8.8h47h0.1h47v-8.8C1078.1,347.1,1076.9,343.8,1073.2,342.7z"/>
					<path fill="#424342" d="M1066.2,337.4c0,0,4.9-2.6,4.9-9c0-6.4-20.2-14.7-20.2-23.2s8.1-7.6,8.1-7.9s0-4.6,0-4.6
						s-11.2-0.2-13.1-6.4c-1.9-6.2-7.8-54.9-7.8-54.9s-1.2-11.3,1.5-13.8v-0.1h11.2c2.3,0,4.1-1.9,4.1-4.1v-1.6
						c0-2.3-1.9-4.1-4.1-4.1h-2.6c1.7,0,3.1-1.4,3.1-3.1c0-1.7-1.4-3.1-3.1-3.1h-1c0,0-2.6-15.2-2.1-27.8
						c0.5-12.5,15.9-30.5,15-32.9c-0.9-2.4-9.5,1.7-9.5,1.7s-2.2-4.6-2.7-4.7c-0.2-0.1-2.9,0.6-6.5,1.5c-2.9-5.4-8.2-9.3-14.5-10.3
						c2.3-1.1,3.9-3.5,3.9-6.2c0-3.8-3.1-6.9-6.9-6.9c-3.8,0-6.9,3.1-6.9,6.9c0,2.7,1.6,5.1,3.9,6.2c-6.3,0.9-11.6,4.9-14.5,10.3
						c-3.6-0.9-6.4-1.6-6.5-1.5c-0.5,0.2-2.7,4.7-2.7,4.7s-8.5-4.1-9.5-1.7c-0.9,2.4,14.5,20.3,15,32.9c0.5,12.5-2.1,27.8-2.1,27.8
						h-1c-1.7,0-3.1,1.4-3.1,3.1c0,1.7,1.4,3.1,3.1,3.1h-2.6c-2.3,0-4.1,1.9-4.1,4.1v1.6c0,2.3,1.9,4.1,4.1,4.1h11.1v0.1
						c2.6,2.5,1.6,13.8,1.6,13.8s-5.9,48.6-7.8,54.9c-1.9,6.2-13.1,6.4-13.1,6.4s0,4.3,0,4.6s8.1-0.6,8.1,7.9s-20.2,16.7-20.2,23.2
						c0,6.4,4.9,9,4.9,9c-3.8,1-4.9,4.4-4.9,4.4v8.8h47h0.1h47v-8.8C1071.1,341.8,1069.9,338.5,1066.2,337.4z"/>
					<path fill="#2B2B2B" d="M1066.2,337.4c0,0,4.9-2.6,4.9-9c0-6.4-20.2-14.7-20.2-23.2c0-8.5,8.1-7.6,8.1-7.9c0-0.4,0-4.6,0-4.6
						s-11.2-0.2-13.1-6.4s-7.8-54.9-7.8-54.9s-1.2-11.3,1.5-13.8v-0.1h11.2c2.3,0,4.1-1.9,4.1-4.1v-1.6c0-2.3-1.9-4.1-4.1-4.1h-2.6
						c1.7,0,3.1-1.4,3.1-3.1s-1.4-3.1-3.1-3.1h-1c0,0-2.6-15.2-2.1-27.8c0.5-12.5,15.9-30.5,15-32.9c-0.9-2.4-9.5,1.7-9.5,1.7
						s-2.2-4.6-2.7-4.7c-0.2-0.1-2.9,0.6-6.5,1.5c-2.9-5.4-8.2-9.3-14.5-10.3c2.3-1.1,3.9-3.5,3.9-6.2c0-3.8-3.1-6.9-6.9-6.9
						c0,0,0,0,0,0v234.6h0h47v-8.8C1071.1,341.8,1069.9,338.5,1066.2,337.4z"/>
				</g>
				<g>
					<path opacity="0.33" fill="#30302F" d="M1421.3,341.6c0,0,4.4-3.2,4.4-11.3c0-8.1-18.2-18.5-18.2-29.3c0-10.7,7.3-9.6,7.3-10
						c0-0.5,0-5.9,0-5.9s-10-0.2-11.7-8.1c-0.7-3.1-1.9-14.8-3.2-27.7h7.4c2.2,0,4.1-1.8,4.1-4.1v-1.6c0-2.2-1.8-4.1-4.1-4.1h-3.6
						c1.9,0,3.4-1.5,3.4-3.4v0c0-1.9-1.5-3.4-3.4-3.4h-5.3c-0.3-3-0.5-5.9-0.8-8.6c5.2-4.2,14.7-13.4,14.7-23.3
						c0-13.6-7.6-25.3-13.6-33.7c-6-8.4-6.4-16.5-6.4-16.5s-0.2,0-0.5,0c3.3-1.3,5.4-3.5,5.4-5.9c0-4.1-6.1-7.3-13.5-7.3
						s-13.5,3.3-13.5,7.3c0,2.4,2.1,4.5,5.4,5.9c-0.3,0-0.5,0-0.5,0s-0.5,8.1-6.4,16.5c-6,8.4-13.6,20.1-13.6,33.7
						c0,9.8,9.3,18.9,14.5,23.2c-0.2,2.7-0.5,5.7-0.8,8.8h-5.1c-1.9,0-3.4,1.5-3.4,3.4v0c0,1.9,1.5,3.4,3.4,3.4h-3.6
						c-2.2,0-4.1,1.8-4.1,4.1v1.6c0,2.2,1.8,4.1,4.1,4.1h7.2c-1.3,12.9-2.5,24.6-3.2,27.7c-1.7,7.9-11.7,8.1-11.7,8.1s0,5.4,0,5.9
						c0,0.5,7.3-0.7,7.3,10c0,10.7-18.2,21.1-18.2,29.3c0,8.1,4.4,11.3,4.4,11.3c-3.4,1.3-4.4,5.5-4.4,5.5v11.1h42.2h0.1h42.2v-11.1
						C1425.7,347.1,1424.7,342.9,1421.3,341.6z"/>
					<path fill="#FFFFFF" d="M1414.5,339.6c0,0,4.4-3.2,4.4-11.3c0-8.1-18.2-18.5-18.2-29.3c0-10.7,7.3-9.6,7.3-10
						c0-0.5,0-5.9,0-5.9s-10-0.2-11.7-8.1c-0.7-3.1-1.9-14.8-3.2-27.7h7.4c2.2,0,4.1-1.8,4.1-4.1v-1.6c0-2.2-1.8-4.1-4.1-4.1h-3.6
						c1.9,0,3.4-1.5,3.4-3.4v0c0-1.9-1.5-3.4-3.4-3.4h-5.3c-0.3-3-0.5-5.9-0.8-8.6c5.2-4.2,14.7-13.4,14.7-23.3
						c0-13.6-7.6-25.3-13.6-33.7c-6-8.4-6.4-16.5-6.4-16.5s-0.2,0-0.5,0c3.3-1.3,5.4-3.5,5.4-5.9c0-4.1-6.1-7.3-13.5-7.3
						s-13.5,3.3-13.5,7.3c0,2.4,2.1,4.5,5.4,5.9c-0.3,0-0.5,0-0.5,0s-0.5,8.1-6.4,16.5c-6,8.4-13.6,20.1-13.6,33.7
						c0,9.8,9.3,18.9,14.5,23.2c-0.2,2.7-0.5,5.7-0.8,8.8h-5.1c-1.9,0-3.4,1.5-3.4,3.4v0c0,1.9,1.5,3.4,3.4,3.4h-3.6
						c-2.2,0-4.1,1.8-4.1,4.1v1.6c0,2.2,1.8,4.1,4.1,4.1h7.2c-1.3,12.9-2.5,24.6-3.2,27.7c-1.7,7.9-11.7,8.1-11.7,8.1s0,5.4,0,5.9
						c0,0.5,7.3-0.7,7.3,10c0,10.7-18.2,21.1-18.2,29.3c0,8.1,4.4,11.3,4.4,11.3c-3.4,1.3-4.4,5.5-4.4,5.5v11.1h42.2h0.1h42.2v-11.1
						C1418.9,345.1,1417.9,340.9,1414.5,339.6z"/>
					<path fill="#424342" d="M1414.5,339.6c0,0,4.4-3.2,4.4-11.3c0-8.1-18.2-18.5-18.2-29.3c0-10.7,7.3-9.6,7.3-10
						c0-0.5,0-5.9,0-5.9s-10-0.2-11.7-8.1c-0.7-3.1-1.9-14.8-3.2-27.7h7.4c2.2,0,4.1-1.8,4.1-4.1v-1.6c0-2.2-1.8-4.1-4.1-4.1h-3.6
						c1.9,0,3.4-1.5,3.4-3.4v0c0-1.9-1.5-3.4-3.4-3.4h-5.3c-0.3-3-0.5-5.9-0.8-8.6c5.2-4.2,14.7-13.4,14.7-23.3
						c0-13.6-7.6-25.3-13.6-33.7c-6-8.4-6.4-16.5-6.4-16.5s-0.2,0-0.5,0c3.3-1.3,5.4-3.5,5.4-5.9c0-4.1-6.1-7.3-13.5-7.3
						s-13.5,3.3-13.5,7.3c0,2.4,2.1,4.5,5.4,5.9c-0.3,0-0.5,0-0.5,0s-0.5,8.1-6.4,16.5c-6,8.4-13.6,20.1-13.6,33.7
						c0,9.8,9.3,18.9,14.5,23.2c-0.2,2.7-0.5,5.7-0.8,8.8h-5.1c-1.9,0-3.4,1.5-3.4,3.4v0c0,1.9,1.5,3.4,3.4,3.4h-3.6
						c-2.2,0-4.1,1.8-4.1,4.1v1.6c0,2.2,1.8,4.1,4.1,4.1h7.2c-1.3,12.9-2.5,24.6-3.2,27.7c-1.7,7.9-11.7,8.1-11.7,8.1s0,5.4,0,5.9
						c0,0.5,7.3-0.7,7.3,10c0,10.7-18.2,21.1-18.2,29.3c0,8.1,4.4,11.3,4.4,11.3c-3.4,1.3-4.4,5.5-4.4,5.5v11.1h42.2h0.1h42.2v-11.1
						C1418.9,345.1,1417.9,340.9,1414.5,339.6z"/>
					<path fill="#2B2B2B" d="M1414.5,339.6c0,0,4.4-3.2,4.4-11.3c0-8.1-18.2-18.5-18.2-29.3s7.3-9.6,7.3-10c0-0.5,0-5.9,0-5.9
						s-10-0.2-11.7-8.1c-0.7-3.1-1.9-14.8-3.2-27.7h7.4c2.2,0,4.1-1.8,4.1-4.1v-1.6c0-2.2-1.8-4.1-4.1-4.1h-3.6
						c1.9,0,3.4-1.5,3.4-3.4s-1.5-3.4-3.4-3.4h-5.3c-0.3-3-0.5-5.9-0.8-8.6c5.2-4.2,14.7-13.4,14.7-23.3c0-13.6-7.6-25.3-13.6-33.7
						c-6-8.4-6.4-16.5-6.4-16.5s-0.2,0-0.5,0c3.3-1.3,5.4-3.5,5.4-5.9c0-4.1-6.1-7.3-13.5-7.3c0,0-0.1,0-0.1,0v220.6h0h42.2v-11.1
						C1418.9,345.1,1417.9,340.9,1414.5,339.6z"/>
				</g>
			</g>
		</g>
	</g>
</g>
</svg>
